<svg width="209" height="82" viewBox="0 0 209 82" fill="none" xmlns="http://www.w3.org/2000/svg">
<g clip-path="url(#clip0)">
<path d="M114.168 81.4152H118.968C133.368 80.6952 143.448 69.4152 143.448 55.9752C143.448 51.4152 142.488 46.8552 140.328 43.2552H114.168V81.4152Z" fill="white"/>
<path d="M111.768 43.0152H87.7682V81.4152H111.768V43.0152Z" fill="white"/>
<path d="M138.888 40.6152C136.488 37.2552 133.128 34.6152 129.528 32.6952C133.848 29.5752 136.728 24.5352 136.728 19.0152C136.728 9.65521 129.288 2.21521 119.928 2.21521H114.168V40.6152H138.888Z" fill="white"/>
<path d="M111.768 2.21521H87.7682V40.6152H111.768V2.21521Z" fill="white"/>
<path d="M178.968 81.4152H183.768C198.168 80.6952 208.248 69.4152 208.248 55.9752C208.248 51.4152 207.288 46.8552 205.128 43.2552H178.968V81.4152Z" fill="white"/>
<path d="M176.568 43.0152H152.568V81.4152H176.568V43.0152Z" fill="white"/>
<path d="M203.688 40.6152C201.288 37.2552 197.928 34.6152 194.328 32.6952C198.648 29.5752 201.528 24.5352 201.528 19.0152C201.528 9.65521 194.088 2.21521 184.728 2.21521H178.968V40.6152H203.688Z" fill="white"/>
<path d="M176.568 2.21521H152.568V40.6152H176.568V2.21521Z" fill="white"/>
<path d="M15.0482 43.0152L1.36816 81.4152H21.2882L27.0482 64.6152H39.7682V43.0152H15.0482Z" fill="white"/>
<path d="M39.7682 2.21521H29.4482L15.7682 40.6152H39.7682V2.21521Z" fill="white"/>
<path d="M42.1682 64.6152H54.8882L60.6482 81.4152H80.5682L66.8882 43.0152H42.1682V64.6152Z" fill="white"/>
<path d="M66.1682 40.6152L52.4882 2.21521H42.1682V40.6152H66.1682Z" fill="white"/>
</g>
<defs>
<clipPath id="clip0">
<rect width="208.8" height="81.6" fill="white"/>
</clipPath>
</defs>
</svg>
