<svg width="101" height="101" viewBox="0 0 101 101" fill="none" xmlns="http://www.w3.org/2000/svg">
<g clip-path="url(#clip0)">
<path d="M50.666 100.367C78.1755 100.367 100.469 78.0734 100.469 50.572C100.469 23.0707 78.1755 0.768738 50.666 0.768738C23.1647 0.768738 0.87085 23.0707 0.87085 50.572C0.87085 78.0734 23.1647 100.367 50.666 100.367Z" fill="inherit"/>
<path d="M61.8414 37.6019C61.8414 31.939 65.6749 26.4468 67.7665 27.4814C70.1507 28.6766 65.9798 34.0102 61.8414 37.6019ZM35.773 39.665C35.773 35.1119 40.2651 26.4611 43.0091 27.3758C46.2532 28.4571 40.322 37.1832 35.773 39.665ZM31.2179 72.2276C29.1528 72.3211 27.7706 70.9999 27.7706 68.7945C27.7706 62.8694 35.9925 57.2085 42.2022 54.1698C41.1005 62.4425 38.3057 71.9085 31.2179 72.2276ZM69.1507 52.9197C64.4614 52.9197 60.8779 56.3691 60.8779 60.5055C60.8779 63.9548 62.9512 66.7131 65.7013 66.7131C66.675 66.7131 67.6384 66.1582 67.6384 64.9264C67.6384 63.1235 65.2603 62.6905 65.4391 60.0095C65.5591 58.2411 67.2258 57.0581 68.8804 57.0581C72.1874 57.0581 73.7343 60.2636 73.7343 63.5706C73.6001 68.6786 69.8398 72.2255 65.433 72.2255C59.636 72.2255 55.9122 66.7131 55.9122 60.7799C55.9122 51.9461 61.7093 48.4988 64.746 47.6755C64.7745 47.6755 72.6773 49.0801 72.4313 45.5962C72.3175 44.0636 70.0389 43.4741 68.3925 43.4111C66.5611 43.34 64.7114 43.9985 64.7114 43.9985C63.752 43.5107 63.0853 42.5574 62.6727 41.4598C68.3295 37.1791 72.3297 33.0447 72.3297 28.3534C72.3297 25.8716 70.6711 23.6642 67.4982 23.6642C61.8414 23.6642 57.5647 30.8373 57.5647 37.3214C57.5647 38.421 57.5647 39.5288 57.8493 40.4923C54.2597 43.1103 51.5909 44.7425 46.7675 47.639C46.7675 47.0353 46.8935 45.4763 47.3 43.4599C48.9525 41.6651 51.223 38.9759 51.223 36.9047C51.223 35.9412 50.6762 35.1099 49.5623 35.1099C46.8081 35.1099 44.743 39.2524 44.1901 42.1488C42.9482 43.6733 40.4643 45.6043 38.391 45.6043C36.7385 45.6043 36.1836 44.0859 36.0433 43.531C41.2875 41.7362 47.7716 34.5631 47.7716 28.079C47.7716 26.703 47.2187 23.6642 43.0823 23.6642C36.8747 23.6642 31.6386 32.9106 31.6386 40.0756C29.4251 40.0756 28.6019 37.734 28.6019 35.9392C28.6019 34.1424 29.291 32.3557 29.291 31.8008C29.291 31.2479 29.0145 30.5609 28.1832 30.5609C26.118 30.5609 24.8761 33.3191 24.8761 36.4921C25.0184 40.9069 27.9129 43.6733 31.7728 43.9437C32.3257 46.5678 34.6673 49.0516 37.5617 49.0516C39.3585 49.0516 41.5639 48.4988 43.0823 47.1227C42.9482 48.0861 42.814 48.9175 42.6717 49.7407C36.5982 52.9197 32.1834 55.1251 28.1832 58.7107C25.0184 61.6112 23.2236 65.4711 23.2236 68.5018C23.2236 72.6463 25.8416 76.5063 31.2199 76.5063C37.5617 76.5063 42.3953 71.4044 44.743 64.3654C45.8426 61.0583 46.2837 56.241 46.5662 51.8201C52.9039 48.2284 55.9122 46.1592 59.2254 43.8095C59.638 44.4986 60.0547 45.0494 60.6015 45.462C57.707 46.9804 50.8103 51.2591 50.8103 61.3266C50.8103 68.4998 55.6338 76.5042 65.1586 76.5042C73.0208 76.5042 78.3991 70.0181 78.3991 63.8085C78.3971 58.1578 75.2242 52.9197 69.1507 52.9197ZM92.8694 64.7699C92.849 64.8126 92.7718 64.8695 92.6153 64.8187C92.4933 64.776 92.4669 64.7191 92.4669 64.6398C92.473 64.5626 94.1337 59.6518 94.1194 54.0255C94.1052 47.9439 91.6376 44.2181 88.4728 44.2181C86.5357 44.2181 85.1576 45.6023 85.1576 47.6755C85.1576 51.3993 89.7066 51.6778 89.7066 59.8144C89.7066 63.1214 89.0175 66.2944 87.9199 69.7417C82.8099 86.9824 66.5327 94.9868 50.6762 94.9868C43.3608 94.9868 38.1654 93.4827 36.6206 92.7896C36.5576 92.753 36.4987 92.6331 36.5495 92.5111C36.584 92.4196 36.6918 92.3485 36.7548 92.377C37.3808 92.6188 41.8424 94.0234 47.363 94.0234C53.4304 94.0234 57.02 91.5415 57.02 88.5028C57.02 86.5738 55.5016 85.0555 53.5727 85.0555C49.8469 85.0555 49.5643 89.7447 41.566 89.7447C38.1187 89.7447 35.0819 89.0557 31.4984 87.9479C14.3878 82.7078 6.24307 66.5728 6.24917 50.572C6.25527 42.7749 8.44237 36.5652 8.47692 36.5083C8.50538 36.4677 8.60294 36.423 8.72287 36.4677C8.84483 36.5083 8.87125 36.6079 8.86515 36.6445C8.66799 37.2909 7.21873 41.7403 7.21873 47.2609C7.21873 53.3344 9.70056 56.9179 12.8735 56.9179C14.6622 56.9179 16.1806 55.5418 16.1806 53.6108C16.1806 49.8809 11.6255 49.4683 11.6255 41.4659C11.6255 38.0165 12.3206 34.9798 13.4203 31.3963C18.6644 14.2897 34.8075 6.27308 50.6721 6.14909C58.0444 6.09217 64.494 8.2996 64.7419 8.49677C64.7846 8.53335 64.8273 8.62685 64.7846 8.73865C64.7257 8.8728 64.6403 8.88703 64.5997 8.8789C64.5224 8.8728 60.3271 7.11865 53.9772 7.11865C48.046 7.11255 44.3202 9.59641 44.3202 12.7734C44.3202 14.5621 45.7044 16.0805 47.7675 16.0805C51.4933 16.0805 51.7697 11.5315 59.7742 11.5315C63.2134 11.5315 66.2522 12.2124 69.8357 13.3202C87.0845 18.5623 94.9325 34.8395 95.0809 50.57C95.1622 58.6253 92.8917 64.7191 92.8694 64.7699ZM50.6742 3.11642C24.4635 3.11642 3.22056 24.3532 3.22056 50.57C3.22056 76.7807 24.4635 98.0175 50.6742 98.0175C76.8787 98.0175 98.1217 76.7807 98.1217 50.57C98.1217 24.4955 76.8787 3.11642 50.6742 3.11642ZM50.6742 100.367C23.2216 100.367 0.87085 78.1588 0.87085 50.572C0.87085 23.1113 23.2216 0.768738 50.6742 0.768738C78.1186 0.768738 100.469 23.1113 100.469 50.572C100.469 78.1588 78.1186 100.367 50.6742 100.367Z" fill="#FFF"/>
</g>
<defs>
<clipPath id="clip0">
<rect width="100.005" height="100.005" fill="white" transform="translate(0.667603 0.565475)"/>
</clipPath>
</defs>
</svg>
