<svg width="456" height="92" viewBox="0 0 456 92" fill="none" xmlns="http://www.w3.org/2000/svg">
<g clip-path="url(#clip0)">
<path d="M356.966 11.3384V38.5928H393.456C393.456 38.6917 393.409 11.3268 393.456 11.3384C393.409 11.3268 411.3 11.3384 411.503 11.3384C411.503 11.3384 411.573 79.4163 411.503 79.4919H393.456V49.4806C393.456 49.5911 356.966 49.4806 356.966 49.4806C357 49.6202 356.966 79.5094 356.966 79.4919H338.924C338.924 79.4919 339.023 11.3384 338.924 11.3384H356.966Z" fill="#FFF"/>
<path d="M185.576 11.3384V22.9125H157.956V79.4919H139.908V22.9125H112.305C112.305 22.9125 112.322 11.3617 112.305 11.3384C112.322 11.3617 185.576 11.3384 185.576 11.3384Z" fill="#FFF"/>
<path d="M255.796 79.4909H235.678C235.696 79.4909 229.763 64.8401 229.763 64.8401H195.914C195.914 64.8401 190.086 79.5084 190.01 79.4909C190.01 79.5084 169.892 79.4909 169.892 79.4909L201.765 11.3374C201.765 11.3665 223.907 11.3374 223.907 11.3374L255.796 79.4909ZM212.804 22.9173L200.258 53.929H225.425L212.804 22.9173V22.9173Z" fill="#FFF"/>
<path d="M425.817 11.3383H443.882V79.4919H425.817V11.3383Z" fill="#FFF"/>
<path d="M18.936 11.3384C18.936 11.3384 18.9302 38.7964 18.936 38.5928H55.4032C55.4032 38.6917 55.3566 11.3268 55.4032 11.3384C55.3566 11.3268 73.2994 11.3384 73.4623 11.3384C73.4623 11.3384 73.5495 79.4163 73.4623 79.4919H55.4032V49.4806C55.4032 49.5911 18.936 49.4806 18.936 49.4806C18.936 49.6202 18.9302 79.5094 18.936 79.4919H0.882706C0.882706 79.4919 0.952499 11.3384 0.882706 11.3384H18.936Z" fill="#FFF"/>
<path d="M87.7822 11.3383H105.841V79.4919H87.7822V11.3383Z" fill="#FFF"/>
<path d="M255.148 60.6277C253.543 56.0214 252.723 51.194 252.723 46.0816C252.723 38.9277 253.973 31.9949 257.416 26.2137C260.941 20.2928 266.367 15.7039 272.911 13.2786C279.151 10.9289 285.886 9.64349 292.918 9.64349C301.037 9.64349 308.686 11.4174 315.717 14.4418C322.226 17.2335 327.129 23.102 328.606 30.1919C328.903 31.582 329.094 33.0593 329.222 34.5191H310.262C310.221 32.6638 309.924 30.8957 309.302 29.2671C307.854 25.5041 304.719 22.5553 300.84 21.3979C298.333 20.6011 295.657 20.2114 292.918 20.2114C289.795 20.2114 286.776 20.7349 283.984 21.7411C279.355 23.3579 275.755 27.1035 274.132 31.7448C272.533 36.2116 271.619 41.0506 271.619 46.0816C271.619 50.2576 272.323 54.2823 273.37 58.0628C274.754 63.024 278.488 67.008 283.228 68.8285C286.247 69.9568 289.516 70.6199 292.918 70.6199C295.826 70.6199 298.63 70.1837 301.276 69.3287C304.806 68.2004 307.656 65.6064 309.163 62.2388C310.14 60.0229 310.663 57.5568 310.663 54.9279H329.694C329.554 57.1613 329.269 59.3482 328.763 61.3897C327.129 68.1538 322.412 73.8304 316.142 76.4418C309.006 79.4255 301.16 81.1645 292.918 81.1645C286.544 81.1645 280.367 80.1758 274.615 78.3495C265.809 75.5868 258.202 69.2531 255.148 60.6277Z" fill="#FFF"/>
</g>
<defs>
<clipPath id="clip0">
<rect width="455" height="91" fill="white" transform="translate(0.88269 0.923004)"/>
</clipPath>
</defs>
</svg>
