<svg width="361" height="82" viewBox="0 0 361 82" fill="none" xmlns="http://www.w3.org/2000/svg">
<g clip-path="url(#clip0)">
<path d="M115.574 81.009H84.6469L100.844 30.0829H131.776L115.574 81.009Z" fill="#FFF"/>
<path d="M136.393 15.5362C135.134 19.5198 130.822 22.8001 126.809 22.8001H110.442C106.445 22.8001 104.204 19.5198 105.482 15.5362L107.794 8.25657C109.07 4.2546 113.379 0.974301 117.388 0.974301H133.758C137.766 0.974301 139.996 4.2546 138.716 8.25657L136.393 15.5362Z" fill="#FFF"/>
<path d="M186.51 0.974848L176.147 33.5417C176.751 31.6365 175.696 30.0829 173.783 30.0829H146.33C142.318 30.0829 138.009 33.3554 136.731 37.3547L125.158 73.7425C123.883 77.7392 126.116 81.009 130.12 81.009H191.974L217.426 0.974848H186.51ZM163.301 73.9078C162.698 75.8156 160.643 77.3692 158.725 77.3692H158.386C156.491 77.3692 155.418 75.8156 156.024 73.9078L167.71 37.1815C168.319 35.2763 170.371 33.7149 172.287 33.7149H172.625C174.523 33.7149 175.588 35.2763 174.982 37.1815L163.301 73.9078V73.9078Z" fill="#FFF"/>
<path d="M275.883 57.3627L282.249 37.3555C283.53 33.3562 281.297 30.0811 277.292 30.0811H222.716C218.719 30.0811 214.402 33.3562 213.132 37.3555L201.565 73.7406C200.281 77.74 202.507 81.0098 206.509 81.0098H268.365L269.522 77.37H238.6C234.598 77.37 232.368 74.1002 233.633 70.1008L237.687 57.3627H275.883ZM244.106 37.1823C244.71 35.2771 246.77 33.7131 248.678 33.7131H249.021C250.932 33.7131 251.984 35.2771 251.383 37.1823L246.119 53.7229H238.847L244.106 37.1823Z" fill="#FFF"/>
<path d="M328.886 33.7215H359.812L360.972 30.0816H299.121C295.114 30.0816 290.797 33.3567 289.522 37.356L277.954 73.728C276.674 77.7379 278.917 81.0103 282.914 81.0103H344.749L345.912 77.3705H314.99C310.988 77.3705 308.758 74.1007 310.033 70.0935L319.302 40.9906C320.562 36.9886 324.889 33.7215 328.886 33.7215Z" fill="#FFF"/>
<path d="M99.1924 0.974848L82.9956 51.9061L51.9088 0.974848H26.4353L0.972229 81.009H4.6173L20.8141 30.0829L51.9088 81.009H77.3692L102.837 0.974848H99.1924Z" fill="#FFF"/>
</g>
<defs>
<clipPath id="clip0">
<rect width="360" height="81.6" fill="white" transform="translate(0.972229 0.374329)"/>
</clipPath>
</defs>
</svg>
