<svg width="374" height="61" viewBox="0 0 374 61" fill="none" xmlns="http://www.w3.org/2000/svg">
<g clip-path="url(#clip0)">
<path fill-rule="evenodd" clip-rule="evenodd" d="M369.466 3.07273V14.1754C363.714 12.004 358.593 10.9061 354.111 10.9061C351.457 10.9061 349.342 11.3977 347.753 12.3482C346.163 13.3068 345.352 14.4868 345.352 15.8798C345.352 17.7316 347.146 19.3784 350.76 20.8535L361.199 25.9337C369.639 29.9569 373.826 35.2992 373.826 42.0101C373.826 47.5901 371.605 52.0394 367.123 55.3333C362.674 58.6602 356.684 60.307 349.228 60.307C345.786 60.307 342.697 60.1596 339.952 59.8482C337.208 59.5533 334.053 58.9468 330.554 58.0783V46.4594C336.97 48.6308 342.812 49.7287 348.072 49.7287C354.349 49.7287 357.471 47.9097 357.471 44.2388C357.471 42.4116 356.192 40.9367 353.595 39.7813L342.001 34.8403C337.724 32.9066 334.545 30.5632 332.463 27.7855C330.415 24.9832 329.374 21.7712 329.374 18.1004C329.374 12.9626 331.537 8.82474 335.814 5.67826C340.124 2.55636 345.844 0.991402 352.956 0.991402C355.267 0.991402 357.93 1.19617 360.879 1.57312C363.854 1.97464 366.713 2.46626 369.466 3.07273V3.07273Z" fill="#FFF"/>
<path fill-rule="evenodd" clip-rule="evenodd" d="M41.0913 3.07273V14.1754C35.3392 12.004 30.2263 10.9061 25.7442 10.9061C23.0812 10.9061 20.9755 11.3977 19.3858 12.3482C17.7963 13.3068 16.9851 14.4868 16.9851 15.8798C16.9851 17.7316 18.8041 19.3784 22.4176 20.8535L32.8565 25.9337C41.2633 29.9569 45.4587 35.2992 45.4587 42.0101C45.4587 47.5901 43.2299 52.0394 38.7806 55.3333C34.2986 58.6602 28.3417 60.307 20.8608 60.307C17.4194 60.307 14.3221 60.1596 11.5771 59.8482C8.83221 59.5533 5.71034 58.9468 2.18714 58.0783V46.4594C8.62745 48.6308 14.4697 49.7287 19.6972 49.7287C25.9737 49.7287 29.0956 47.9097 29.0956 44.2388C29.0956 42.4116 27.8255 40.9367 25.2526 39.7813L13.6584 34.8403C9.34839 32.9066 6.16919 30.5632 4.12083 27.7855C2.03952 24.9832 1.02353 21.7712 1.02353 18.1004C1.02353 12.9626 3.17036 8.82474 7.47203 5.67826C11.7493 2.55636 17.4767 0.991402 24.589 0.991402C26.9242 0.991402 29.5545 1.19617 32.5369 1.57312C35.4868 1.97464 38.3464 2.46626 41.0913 3.07273V3.07273Z" fill="#FFF"/>
<path fill-rule="evenodd" clip-rule="evenodd" d="M53.0542 2.03197H70.0565V59.2664H53.0542V2.03197Z" fill="#FFF"/>
<path fill-rule="evenodd" clip-rule="evenodd" d="M124.832 2.03197V12.6104H99.5705V25.3026H121.481V34.8404H99.5705V48.1638H125.348V59.2664H83.2076V2.03197H124.832Z" fill="#FFF"/>
<path fill-rule="evenodd" clip-rule="evenodd" d="M204.205 2.03197V59.2664H188.333V21.5171L171.865 59.7908H162.065L146.226 21.5171V59.2664H134.747V2.03197H155.501L169.669 37.0691L184.491 2.03197H204.205Z" fill="#FFF"/>
<path fill-rule="evenodd" clip-rule="evenodd" d="M258.957 2.03197V12.6104H233.834V25.3026H255.744V34.8404H233.834V48.1638H259.473V59.2664H217.333V2.03197H258.957Z" fill="#FFF"/>
<path fill-rule="evenodd" clip-rule="evenodd" d="M318.616 2.03197V59.2664H300.581L280.344 22.5577V59.2664H268.871V2.03197H287.431L307.145 38.1099V2.03197H318.616Z" fill="#FFF"/>
</g>
<defs>
<clipPath id="clip0">
<rect width="373.596" height="60" fill="white" transform="translate(0.287537 0.983978)"/>
</clipPath>
</defs>
</svg>
