<svg width="401" height="62" viewBox="0 0 401 62" fill="none" xmlns="http://www.w3.org/2000/svg">
<g clip-path="url(#clip0)">
<path d="M383.368 59.9855H400.643L382.818 1.15548L358.268 1.15448L340.443 59.9845H357.723L360.873 49.0945H380.203L383.368 59.9845V59.9855ZM364.613 36.013L370.493 15.6875H370.593L376.473 36.013H364.613Z" fill="#FFF"/>
<path d="M86.8825 61.0405C104.623 61.0405 113.198 57.9155 114.413 41.908C114.703 38.099 114.758 34.1885 114.758 30.5635C114.763 26.951 114.703 23.0365 114.413 19.228C113.198 3.21547 104.623 0.0954742 86.8825 0.0954742C69.1425 0.0954742 60.5725 3.21547 59.3625 19.228C59.0675 23.0365 59.0075 26.951 59.0075 30.5635C59.0125 34.1885 59.0675 38.099 59.3625 41.908C60.5725 57.9155 69.1425 61.0405 86.8825 61.0405ZM75.7275 30.5635C75.7275 27.333 75.8075 25.4235 75.8775 24.0065C76.3275 14.926 79.9125 13.8675 86.8825 13.8675C93.8575 13.8675 97.4425 14.926 97.8875 24.0065C97.9575 25.423 98.0425 27.3325 98.0425 30.5635C98.0425 33.8045 97.9575 35.7175 97.8875 37.131C97.4425 46.213 93.8575 47.2735 86.8825 47.2735C79.9125 47.2735 76.3275 46.213 75.8775 37.131C75.8075 35.7175 75.7275 33.8045 75.7275 30.5635V30.5635Z" fill="#FFF"/>
<path d="M0.642517 1.18148V15.847H18.2285V60.0105H35.821V15.847H53.4075V1.18148H0.642517Z" fill="#FFF"/>
<path d="M270.567 59.9855V1.15448H253.872V59.9855H270.567Z" fill="#FFF"/>
<path d="M203.393 22.634V1.15448H186.793V59.9855H203.393V37.2995H222.683V59.9855H239.278V1.15448H222.683V22.634H203.393Z" fill="#FFF"/>
<path d="M325.478 29.237C332.873 27.3465 335.043 22.929 335.043 16.544C335.043 3.61448 326.908 1.15398 315.343 1.15398H285.368V59.984H316.828C331.313 59.984 336.183 53.744 336.183 44.1465C336.183 37.455 334.653 31.551 325.478 29.2355V29.237ZM301.963 35.82H313.473C318.123 35.82 319.093 37.857 319.093 41.17C319.093 44.486 317.273 46.5285 313.473 46.5285H301.963V35.82ZM301.963 14.6075H313.473C316.478 14.6075 318.338 16.033 318.338 19.4615C318.338 22.4005 316.498 24.2095 313.473 24.2095H301.963V14.6075Z" fill="#FFF"/>
<path d="M124.433 40.679H140.258C140.273 43.533 140.638 45.4405 142.023 46.494C143.598 47.681 145.008 48.073 149.683 48.073C154.183 48.073 159.113 48.073 159.113 42.5305C159.113 38.1595 156.358 37.162 151.273 36.891C138.663 36.223 134.103 35.8665 129.408 32.3785C126.208 30 124.548 25.3695 124.548 19.1075C124.548 8.45897 128.263 4.72348 133.623 2.11698C139.153 -0.573523 160.858 -0.573523 166.698 2.11698C174.043 5.50098 174.258 12.827 174.258 19.6225H158.473C158.443 16.158 157.663 15.1795 157.028 14.535C155.388 13.081 153.053 12.774 149.683 12.774C145.603 12.774 140.883 12.958 140.883 17.9125C140.883 21.6925 142.518 23.2725 146.808 23.5505C152.703 23.9275 164.318 24.299 168.458 26.742C174.263 30.1755 175.768 34.8215 175.768 42.4015C175.768 53.3555 171.848 56.5705 166.393 58.9805C160.098 61.7605 139.073 61.7605 132.238 58.7655C124.588 55.4305 124.433 48.7835 124.433 40.679" fill="#FFF"/>
</g>
<defs>
<clipPath id="clip0">
<rect width="400" height="61" fill="white" transform="translate(0.642517 0.0687256)"/>
</clipPath>
</defs>
</svg>
