<svg width="808" height="301" viewBox="0 0 808 301" fill="none" xmlns="http://www.w3.org/2000/svg">
<path d="M96.3451 261.845V259.829L105.177 258.389V187.445H89.3371L82.0411 206.453H79.2571V185.045H141.753V206.453H138.873L131.673 187.445H115.737V258.389L124.569 259.829V261.845H96.3451ZM145.036 261.845V260.333L151.66 259.253V206.837L145.036 205.829V204.245H188.38V220.733H186.436L180.892 206.045H159.58V231.965H168.94L173.188 221.525H175.06V244.277H173.188L168.868 233.693H159.58V260.117H182.188L188.092 244.277H189.964V261.845H145.036ZM222.558 263.285C217.326 263.285 212.742 262.013 208.806 259.469C204.87 256.925 201.822 253.373 199.662 248.813C197.55 244.253 196.494 238.997 196.494 233.045C196.494 227.093 197.574 221.837 199.734 217.277C201.942 212.669 205.038 209.117 209.022 206.621C213.054 204.077 217.686 202.805 222.918 202.805C224.982 202.805 227.07 203.165 229.182 203.885C231.342 204.605 233.286 205.613 235.014 206.909L239.838 202.805H241.35V220.661H239.838L235.374 209.501C233.694 207.965 231.726 206.741 229.47 205.829C227.262 204.917 225.078 204.461 222.918 204.461C219.558 204.461 216.582 205.325 213.99 207.053C211.446 208.781 209.454 211.301 208.014 214.613C206.574 217.925 205.854 221.861 205.854 226.421V239.597C205.854 244.157 206.55 248.093 207.942 251.405C209.334 254.717 211.278 257.261 213.774 259.037C216.27 260.765 219.198 261.629 222.558 261.629C225.006 261.629 227.454 261.101 229.902 260.045C232.35 258.941 234.39 257.477 236.022 255.653L240.198 244.061H241.71V262.565H240.198L235.014 258.893C233.286 260.285 231.318 261.365 229.11 262.133C226.902 262.901 224.718 263.285 222.558 263.285ZM247.911 261.845V260.333L254.607 257.453V208.637L247.911 205.829V204.245H261.303L292.335 247.733V208.637L285.639 205.829V204.245H300.975V205.829L294.135 208.637V261.845H292.335L256.407 211.373V257.453L263.319 260.333V261.845H247.911ZM304.896 261.845V260.333L311.52 259.253V206.837L304.896 205.829V204.245H326.064V205.829L319.44 206.837V259.253L326.064 260.333V261.845H304.896ZM360.337 262.565L338.881 206.837V257.453L345.793 260.333V261.845H330.385V260.333L337.153 257.453V206.837L330.529 205.829V204.245H346.441L364.513 250.469L382.945 204.245H397.489V205.829L390.865 206.837V259.253L397.489 260.333V261.845H376.321V260.333L382.945 259.253V208.997L361.633 262.565H360.337ZM429.941 263.285C424.709 263.285 420.029 262.013 415.901 259.469C411.773 256.925 408.557 253.373 406.253 248.813C403.949 244.205 402.797 238.949 402.797 233.045C402.797 227.141 403.949 221.909 406.253 217.349C408.557 212.741 411.773 209.165 415.901 206.621C420.029 204.077 424.709 202.805 429.941 202.805C435.173 202.805 439.853 204.077 443.981 206.621C448.109 209.165 451.325 212.741 453.629 217.349C455.933 221.909 457.085 227.141 457.085 233.045C457.085 238.949 455.933 244.205 453.629 248.813C451.325 253.373 448.109 256.925 443.981 259.469C439.853 262.013 435.173 263.285 429.941 263.285ZM429.941 261.629C433.397 261.629 436.493 260.717 439.229 258.893C442.013 257.069 444.197 254.429 445.781 250.973C447.365 247.469 448.157 243.341 448.157 238.589V227.501C448.157 222.749 447.365 218.645 445.781 215.189C444.197 211.685 442.013 209.021 439.229 207.197C436.493 205.373 433.397 204.461 429.941 204.461C426.437 204.461 423.317 205.373 420.581 207.197C417.845 209.021 415.685 211.685 414.101 215.189C412.517 218.645 411.725 222.749 411.725 227.501V238.589C411.725 243.341 412.517 247.469 414.101 250.973C415.685 254.429 417.845 257.069 420.581 258.893C423.317 260.717 426.437 261.629 429.941 261.629ZM474.171 261.845V260.333L480.795 259.253V206.045H468.915L463.443 220.301H461.355V204.245H508.227V220.301H506.067L500.667 206.045H488.715V259.253L495.339 260.333V261.845H474.171ZM539.561 263.285C534.329 263.285 529.649 262.013 525.521 259.469C521.393 256.925 518.177 253.373 515.873 248.813C513.569 244.205 512.417 238.949 512.417 233.045C512.417 227.141 513.569 221.909 515.873 217.349C518.177 212.741 521.393 209.165 525.521 206.621C529.649 204.077 534.329 202.805 539.561 202.805C544.793 202.805 549.473 204.077 553.601 206.621C557.729 209.165 560.945 212.741 563.249 217.349C565.553 221.909 566.705 227.141 566.705 233.045C566.705 238.949 565.553 244.205 563.249 248.813C560.945 253.373 557.729 256.925 553.601 259.469C549.473 262.013 544.793 263.285 539.561 263.285ZM539.561 261.629C543.017 261.629 546.113 260.717 548.849 258.893C551.633 257.069 553.817 254.429 555.401 250.973C556.985 247.469 557.777 243.341 557.777 238.589V227.501C557.777 222.749 556.985 218.645 555.401 215.189C553.817 211.685 551.633 209.021 548.849 207.197C546.113 205.373 543.017 204.461 539.561 204.461C536.057 204.461 532.937 205.373 530.201 207.197C527.465 209.021 525.305 211.685 523.721 215.189C522.137 218.645 521.345 222.749 521.345 227.501V238.589C521.345 243.341 522.137 247.469 523.721 250.973C525.305 254.429 527.465 257.069 530.201 258.893C532.937 260.717 536.057 261.629 539.561 261.629ZM613.887 262.565C611.199 262.565 609.183 261.917 607.839 260.621C606.495 259.325 605.583 257.117 605.103 253.997L603.735 244.349C603.255 241.085 602.127 238.541 600.351 236.717C598.623 234.845 595.911 233.909 592.215 233.909H586.599V259.253L593.223 260.333V261.845H572.055V260.333L578.679 259.253V206.837L572.055 205.829V204.245H592.215C600.039 204.245 605.703 205.469 609.207 207.917C612.711 210.365 614.463 214.085 614.463 219.077C614.463 227.333 609.471 232.109 599.487 233.405V233.837C603.183 234.365 606.135 235.685 608.343 237.797C610.599 239.909 612.015 242.717 612.591 246.221L613.527 252.413C613.911 255.101 614.343 256.925 614.823 257.885C615.351 258.845 616.143 259.325 617.199 259.325C617.919 259.325 618.687 259.109 619.503 258.677C620.319 258.197 621.087 257.597 621.807 256.877L623.031 258.173C621.639 259.757 620.199 260.885 618.711 261.557C617.223 262.229 615.615 262.565 613.887 262.565ZM594.663 232.181C598.167 232.181 600.879 231.125 602.799 229.013C604.767 226.853 605.751 223.685 605.751 219.509V217.997C605.751 210.029 601.239 206.045 592.215 206.045H586.599V232.181H594.663ZM622.927 261.845V260.333L629.551 259.253V206.837L622.927 205.829V204.245H666.271V220.733H664.327L658.783 206.045H637.471V231.965H646.831L651.079 221.525H652.951V244.277H651.079L646.759 233.693H637.471V260.117H660.079L665.983 244.277H667.855V261.845H622.927ZM704.77 263.765C698.818 263.765 692.962 262.069 687.202 258.677L679.042 262.805H676.93V238.133H679.042L687.298 255.989C692.61 259.765 698.69 261.653 705.538 261.653C711.17 261.653 715.81 260.181 719.458 257.237C723.17 254.229 725.026 250.037 725.026 244.661C725.026 240.757 723.842 237.685 721.474 235.445C719.106 233.141 715.266 231.317 709.954 229.973L694.018 225.845C688.45 224.373 684.258 221.877 681.442 218.357C678.626 214.773 677.218 210.549 677.218 205.685C677.218 201.269 678.082 197.365 679.81 193.973C681.602 190.517 684.194 187.861 687.586 186.005C690.978 184.085 695.01 183.125 699.682 183.125C705.506 183.125 710.722 184.117 715.33 186.101L722.338 183.125H724.45V202.709H722.338L715.426 188.693C710.626 186.389 705.41 185.237 699.778 185.237C694.21 185.237 689.826 186.677 686.626 189.557C683.426 192.373 681.826 196.117 681.826 200.789C681.826 204.245 682.946 206.965 685.186 208.949C687.49 210.933 690.85 212.501 695.266 213.653L712.45 218.165C718.018 219.573 722.146 222.005 724.834 225.461C727.586 228.853 728.962 234.037 728.962 241.013C728.962 248.117 726.754 253.685 722.338 257.717C717.986 261.749 712.13 263.765 704.77 263.765Z" fill="#FF1212"/>
<path d="M406.27 53.4273C404.528 53.85 404.29 54.0421 404.171 54.9641C404.052 55.8093 404.211 56.0014 404.963 56.0014C405.795 56.0398 405.835 56.0783 405.201 56.5393C403.696 57.615 404.567 57.8455 406.983 56.9235C410.033 55.7709 411.38 55.963 408.568 57.154C407.419 57.615 406.587 58.1529 406.706 58.345C406.825 58.5371 406.627 58.6908 406.31 58.6908C405.954 58.6908 405.676 58.8444 405.676 59.075C405.676 59.2671 405.399 59.4591 405.082 59.4591C404.488 59.4591 404.29 59.9202 404.726 60.3044C405.003 60.6117 408.449 59.4591 408.449 59.075C408.449 58.9213 409.796 58.3066 411.42 57.7303C414.192 56.7698 414.549 56.7314 416.252 57.1924C417.361 57.4614 418.153 57.9224 418.233 58.345C418.391 58.8829 418.708 58.9981 419.579 58.806C420.887 58.5755 421.203 59.2671 419.936 59.6512C419.5 59.7665 419.144 60.1123 419.144 60.3812C419.144 60.6886 418.589 61.1112 417.876 61.4185C417.203 61.6875 416.846 61.9948 417.124 62.0716C417.718 62.2637 416.094 63.6853 415.222 63.6853C414.866 63.6853 414.232 63.9542 413.836 64.2615C413.44 64.5689 412.965 64.7226 412.806 64.6457C412.648 64.5689 412.608 64.8762 412.687 65.4141C412.925 66.4514 412.568 66.4898 417.559 64.4536C419.183 63.8005 420.966 63.109 421.52 62.9169C422.075 62.7632 423.184 62.3406 423.976 61.9948C425.402 61.4185 425.481 61.4185 425.877 62.1869C426.115 62.6095 426.234 63.4163 426.155 63.9926L425.996 65.0299L425.917 63.9542C425.877 62.84 425.6 62.6864 424.689 63.3395C424.174 63.6853 424.174 63.7237 424.768 63.57C425.323 63.3779 425.363 63.4932 425.006 64.4536C424.768 65.222 424.214 65.683 423.263 65.9904C422.511 66.2593 421.362 66.874 420.728 67.4119C420.094 67.9114 419.381 68.2571 419.144 68.1035C418.946 67.9882 418.748 68.1035 418.748 68.4108C418.748 68.9871 417.124 69.8323 415.975 69.8323C415.579 69.8323 414.985 70.1397 414.707 70.5239C414.43 70.908 413.836 71.3691 413.4 71.5228C412.925 71.7148 412.806 71.9069 413.083 72.0222C413.361 72.099 417.242 70.716 421.758 68.9103C426.274 67.1046 430.274 65.6062 430.71 65.6062C431.264 65.6062 431.423 65.9136 431.423 67.143C431.423 68.2571 431.264 68.6797 430.829 68.6797C430.512 68.6797 430.274 68.795 430.274 68.9487C430.433 69.9476 430.155 70.6007 429.522 70.6007C428.69 70.6007 427.303 71.8685 427.7 72.2527C427.858 72.368 427.462 72.5985 426.868 72.7522C426.274 72.9058 425.996 73.1364 426.234 73.2516C426.472 73.4053 425.996 73.7511 425.164 74.02C424.372 74.3273 423.58 74.75 423.422 74.9805C423.184 75.2878 422.986 75.211 422.669 74.8268C422.313 74.3273 422.273 74.3658 422.471 74.9421C422.669 75.5183 422.55 75.5952 421.916 75.4031C420.926 75.0957 419.461 75.5183 419.738 76.0178C419.896 76.2099 419.698 76.3636 419.342 76.3636C418.985 76.3636 418.787 76.2483 418.866 76.0562C418.985 75.9025 418.629 75.7873 418.153 75.7873C417.005 75.7873 417.322 76.133 418.946 76.6325C420.253 77.0551 420.213 77.0551 431.74 72.3296C434.196 71.3307 436.335 70.6391 436.493 70.7928C436.889 71.177 437.206 76.2483 436.889 77.0935C436.731 77.5161 436.255 77.9387 435.78 78.0924C435.305 78.2461 435.027 78.4382 435.107 78.515C435.542 78.9376 437.364 77.7082 437.364 76.9783C437.404 76.2483 437.444 76.2483 437.879 76.8246C438.236 77.2856 438.553 77.3625 439.068 77.0551C440.177 76.4788 441.523 76.8246 441.523 77.7082C441.523 78.2461 440.731 78.8224 438.553 79.8597C435.661 81.2044 435.622 81.2428 436.81 81.5117C438.473 81.8575 440.177 81.2044 439.899 80.3207C439.701 79.8213 439.82 79.8981 440.296 80.4744C440.692 80.9739 441.88 81.7422 442.989 82.2033L445.009 83.0485L443.94 83.8553L442.87 84.7005L443.9 86.5062C444.494 87.5051 444.851 88.4272 444.732 88.5424C444.455 88.8114 442.118 87.8893 442.197 87.5435C442.316 87.0825 441.642 85.2 441.365 85.2C440.692 85.2 440.612 85.7378 441.127 86.4294C441.682 87.2362 441.523 88.4272 440.89 88.043C440.533 87.8509 433.007 91.1549 433.007 91.5391C433.007 91.616 433.443 91.5391 433.958 91.347C434.552 91.1549 435.027 91.1549 435.305 91.4239C435.622 91.7312 436.414 91.616 438.038 91.0397C440.414 90.1944 440.612 90.156 443.781 90.0792C444.771 90.0408 445.524 89.8871 445.445 89.7334C445.168 89.3108 445.841 89.3492 447.148 89.8487L448.257 90.2713L447.267 91.0397C446.712 91.4623 446.356 92.0386 446.435 92.2691C446.514 92.4996 446.633 93.3832 446.712 94.2285C446.831 95.4963 446.792 95.6115 446.475 94.8816C446.039 93.8443 445.683 93.7674 445.96 94.7279C446.079 95.1889 445.92 95.4579 445.524 95.4579C445.168 95.4579 444.89 95.3042 444.89 95.1121C444.89 94.9584 444.573 94.8047 444.217 94.8432C443.821 94.8432 443.702 94.9584 443.979 95.0353C444.296 95.1889 444.336 95.6115 444.059 96.4183C443.662 97.8014 443.702 97.8783 444.851 97.9935C445.286 98.0319 445.683 98.224 445.683 98.4161C445.683 98.6082 445.96 98.4546 446.316 98.0319C446.633 97.6478 446.831 97.5325 446.673 97.763C446.356 98.3777 446.475 98.3777 448.178 97.6862C449.802 97.033 450.04 96.9946 450.04 97.3788C450.04 97.5709 449.366 98.0704 448.534 98.5314C447.188 99.2614 447.029 99.5303 447.188 100.491C447.267 101.105 447.148 101.759 446.91 101.874C446.673 102.028 446.475 101.951 446.475 101.759C446.475 101.528 446.158 101.336 445.801 101.336C445.286 101.336 445.247 101.451 445.603 101.797C446.197 102.373 446.237 103.641 445.683 103.641C445.484 103.641 445.286 103.91 445.286 104.256C445.286 104.755 445.524 104.832 446.396 104.64C447.148 104.448 447.307 104.486 446.871 104.755C445.603 105.601 446.831 105.485 448.812 104.602C451.228 103.487 451.228 103.487 451.228 104.025C451.228 104.256 449.01 105.485 446.277 106.792C443.544 108.059 441.325 109.173 441.325 109.289C441.325 109.788 446.91 108.828 449.01 107.983C450.436 107.406 451.466 107.176 451.703 107.406C451.901 107.598 452.02 108.751 451.941 109.98L451.822 112.17L449.247 113.515C447.703 114.283 445.643 114.936 444.217 115.167C442.91 115.321 441.207 115.782 440.494 116.127C437.721 117.51 435.78 118.855 435.82 119.393C435.82 119.777 435.899 119.816 436.057 119.47C436.136 119.239 436.414 119.009 436.651 119.009C436.889 119.009 436.968 119.278 436.81 119.585C436.691 119.892 436.731 120.123 436.889 120.123C437.721 120.008 438.87 120.661 438.672 121.16C438.473 121.66 438.315 121.621 437.602 121.045C437.166 120.661 437.008 120.622 437.285 120.93C437.959 121.698 437.879 122.005 436.929 122.274C436.493 122.428 436.216 122.62 436.295 122.735C436.493 122.889 438.988 121.813 439.345 121.352C439.464 121.237 440.177 120.853 440.929 120.469C448.059 117.203 450.99 115.974 451.149 116.127C451.426 116.396 451.545 116.319 446.277 119.009C443.662 120.315 440.058 122.198 438.275 123.12L434.988 124.81L435.107 122.121C435.146 120.622 435.067 119.547 434.909 119.7C434.75 119.854 434.592 121.352 434.512 123.043L434.394 126.078L429.64 128.498C420.015 133.416 416.292 135.183 416.094 134.991C415.896 134.799 415.698 132.917 415.618 130.035C415.579 129.075 415.5 128.998 414.787 129.382C414.351 129.612 413.796 129.689 413.598 129.574C413.083 129.267 404.805 133.454 404.369 134.223C404.211 134.53 403.815 134.761 403.498 134.761C403.22 134.761 402.904 135.145 402.824 135.606C402.745 136.259 401.953 136.874 399.933 137.911C398.428 138.718 397.002 139.371 396.764 139.371C396.526 139.371 396.407 138.41 396.447 137.181C396.447 135.952 396.328 134.684 396.17 134.338C395.893 133.839 396.328 133.454 398.428 132.34C399.854 131.533 401.2 130.919 401.359 130.919C401.557 130.919 401.715 130.496 401.715 129.958C401.715 128.614 402.309 128.767 402.824 130.227L403.22 131.495L403.26 130.419C403.3 129.728 403.498 129.382 403.815 129.497C404.052 129.574 404.25 129.958 404.25 130.304C404.171 130.765 404.369 130.88 404.963 130.688C405.518 130.535 405.676 130.611 405.518 130.88C405.359 131.111 404.963 131.303 404.607 131.303C404.25 131.303 404.092 131.418 404.211 131.572C404.369 131.687 404.171 132.148 403.815 132.571C403.181 133.262 403.26 133.262 404.765 132.455C405.676 131.956 406.35 131.418 406.231 131.264C406.112 131.072 406.27 131.034 406.587 131.149C407.38 131.418 412.687 128.806 413.202 127.845C413.757 126.846 415.183 126.846 415.46 127.807C415.579 128.268 415.896 128.46 416.213 128.345C416.688 128.153 416.688 128.076 416.173 127.692C415.777 127.423 415.618 126.885 415.737 126.308C415.816 125.771 415.935 125.233 415.935 125.079C415.975 124.925 418.035 123.811 420.53 122.582C423.026 121.352 425.085 120.2 425.085 120.046C425.085 119.854 424.689 120.008 424.214 120.315C423.105 121.083 422.709 121.083 422.709 120.353C422.709 120.046 422.55 119.777 422.313 119.777C422.114 119.777 421.916 120.2 421.916 120.699C421.916 121.391 421.56 121.737 420.332 122.236C419.461 122.582 418.668 122.851 418.55 122.851C418.431 122.812 418.035 123.081 417.718 123.427C416.728 124.349 416.371 124.119 416.371 122.505C416.371 121.16 416.688 120.661 417.718 120.622C417.916 120.622 418.233 120.392 418.431 120.085C418.708 119.7 418.866 119.7 418.985 120.046C419.223 120.546 420.292 120.123 421.441 119.086C421.718 118.817 422.114 118.701 422.313 118.817C422.511 118.932 422.709 118.74 422.788 118.356C422.867 118.01 423.342 117.703 423.897 117.664C424.451 117.626 425.204 117.472 425.6 117.28C426.115 117.049 426.274 117.203 426.274 117.895C426.274 119.124 426.63 118.625 426.749 117.203C426.828 116.281 427.105 115.897 428.175 115.436C429.284 114.936 429.522 114.936 429.72 115.397C429.838 115.705 429.838 116.204 429.68 116.512C429.561 116.819 429.68 117.088 429.918 117.088C430.195 117.088 430.274 116.588 430.116 115.782C429.918 114.514 429.997 114.437 431.542 113.822C433.562 113.054 433.601 113.054 433.641 113.976C433.681 114.36 433.799 114.86 433.958 115.09C434.077 115.321 433.879 115.705 433.522 115.935C432.849 116.358 432.849 116.358 433.562 116.127C433.998 116.012 434.473 116.127 434.631 116.358C434.869 116.742 434.869 112.362 434.631 111.786C434.631 111.709 433.918 112.017 433.126 112.439C432.294 112.862 430.987 113.476 430.235 113.784C429.482 114.13 428.571 114.552 428.254 114.744C427.937 114.936 427.145 115.359 426.472 115.666C422.709 117.357 416.015 120.776 414.985 121.506C414.311 121.967 412.45 123.004 410.826 123.811C409.202 124.618 407.776 125.386 407.657 125.578C407.538 125.771 406.468 126.424 405.28 127.077C403.894 127.845 403.498 128.153 404.211 127.999C404.805 127.884 405.28 127.922 405.28 128.153C405.28 128.767 403.656 128.998 402.864 128.498C402.27 128.153 401.636 128.306 399.339 129.382L396.566 130.688L394.387 129.651C391.932 128.498 390.308 128.191 391.654 129.19C392.407 129.728 392.367 129.728 391.535 129.766C390.822 129.766 390.624 129.997 390.624 130.688C390.624 131.188 390.466 131.687 390.268 131.764C389.951 131.841 389.634 134.184 389.832 134.761C389.872 134.876 389.951 135.875 390.03 137.027C390.228 139.333 390.624 140.178 390.624 138.295C390.624 137.604 390.822 137.066 391.1 137.066C391.337 137.066 391.417 137.181 391.298 137.335C391.139 137.45 391.219 137.796 391.456 138.065C391.733 138.372 391.733 138.603 391.417 138.795C390.585 139.294 390.981 141.253 392.05 141.907L393.041 142.56L391.852 143.059C391.1 143.367 390.624 143.828 390.624 144.289C390.624 144.673 390.426 145.172 390.189 145.403C389.872 145.71 389.911 146.017 390.268 146.594C390.664 147.247 390.664 147.477 390.109 147.977C389.753 148.323 389.159 149.129 388.763 149.744C388.406 150.397 387.931 150.897 387.733 150.897C387.574 150.897 387.495 151.05 387.654 151.242C387.891 151.665 386.584 154.124 386.188 153.932C386.069 153.855 385.475 154.278 384.921 154.854C384.366 155.43 383.732 155.853 383.534 155.699C383.336 155.584 382.782 156.045 382.267 156.698L381.395 157.889L382.623 157.274C384.366 156.391 384.643 156.467 385.317 158.043C385.832 159.234 386.03 159.387 386.901 159.195C387.891 158.926 389.674 159.771 389.159 160.233C389.04 160.386 389.238 160.54 389.674 160.54C390.783 160.617 391.932 160.732 392.486 160.809C392.922 160.886 393.872 163.152 393.754 163.805C393.516 165.112 393.793 165.458 394.823 165.073C395.417 164.881 395.972 164.804 396.091 164.92C396.566 165.381 394.546 166.841 390.347 168.992C387.891 170.26 385.871 171.451 385.871 171.605C385.871 171.912 386.901 172.373 392.011 174.255C396.368 175.831 396.526 175.869 396.764 175.485C396.922 175.254 397.319 175.101 397.675 175.139C398.23 175.139 398.23 175.216 397.596 175.446C396.843 175.715 396.843 175.754 397.635 175.946C398.19 176.1 398.744 175.908 399.141 175.485C399.656 174.909 400.012 174.832 400.804 175.139C401.438 175.37 401.676 175.37 401.517 175.101C401.398 174.87 401.636 174.717 402.111 174.717C403.181 174.717 404.567 174.025 404.29 173.602C404.211 173.41 404.409 173.026 404.805 172.757C405.399 172.258 405.439 172.296 404.924 172.872C404.448 173.487 404.488 173.564 405.043 173.564C405.439 173.564 405.676 173.218 405.676 172.642C405.676 171.912 405.874 171.72 406.508 171.758C407.261 171.797 407.261 171.835 406.627 172.296C405.755 172.911 406.112 172.949 407.459 172.335C408.053 172.066 408.409 171.681 408.251 171.374C408.132 170.99 408.291 170.875 408.845 171.067C410.152 171.451 409.756 170.951 408.172 170.26C407.38 169.876 406.944 169.492 407.221 169.415C407.498 169.338 407.934 169.453 408.172 169.684C408.409 169.914 408.766 170.106 408.964 170.106C409.162 170.106 408.013 168.762 406.389 167.11C404.765 165.458 402.666 163.191 401.755 162.038C400.804 160.886 399.457 159.31 398.744 158.542C397.992 157.774 397.517 157.005 397.675 156.813C397.833 156.66 396.606 157.274 394.942 158.119C392.011 159.695 390.228 160.156 390.228 159.349C390.228 159.118 390.506 158.965 390.862 158.965C391.971 158.965 410.231 149.437 409.835 149.053C409.756 148.976 408.924 149.321 407.974 149.859C404.726 151.703 402.389 152.818 402.191 152.626C402.072 152.51 402.191 152.433 402.428 152.433C402.706 152.433 402.904 152.241 402.904 152.011C402.904 151.703 402.706 151.742 402.309 152.049C401.953 152.318 401.557 152.433 401.438 152.28C401.28 152.126 401.398 151.857 401.715 151.665C402.032 151.435 402.111 151.281 401.874 151.281C401.636 151.281 401.2 151.55 400.923 151.857C400.685 152.164 400.329 152.395 400.21 152.357C400.052 152.318 398.824 152.818 397.477 153.509C395.1 154.7 392.882 155.084 392.446 154.393C392.328 154.201 392.882 153.97 393.714 153.855C394.506 153.74 396.209 153.087 397.517 152.395L399.854 151.166L398.824 150.666C398.071 150.282 397.517 150.244 396.764 150.512C395.061 151.127 395.1 150.935 396.883 149.898C397.794 149.36 398.784 149.053 399.061 149.206C399.299 149.36 399.418 149.36 399.259 149.168C399.101 149.014 399.18 148.592 399.457 148.284C399.774 147.9 399.378 147.977 398.269 148.553C396.368 149.475 394.982 149.59 394.269 148.899C393.912 148.553 393.674 148.515 393.476 148.822C393.159 149.283 388.961 151.319 388.723 151.127C388.327 150.743 394.11 148.207 395.378 148.207C396.368 148.207 398.23 147.477 401.359 145.902C403.815 144.634 406.429 143.29 407.142 142.944C408.885 142.06 408.489 141.83 406.667 142.675C405.201 143.328 401.715 143.674 401.715 143.098C401.715 142.944 402.072 142.829 402.507 142.829C402.943 142.829 403.3 142.675 403.3 142.444C403.3 142.252 402.983 142.214 402.626 142.329C402.111 142.521 402.151 142.406 402.785 141.83C403.854 140.831 405.241 140.062 405.637 140.293C405.795 140.408 406.31 140.216 406.706 139.832C407.102 139.486 407.815 139.14 408.251 139.14C408.687 139.102 409.637 138.833 410.35 138.564C411.341 138.18 411.816 138.142 412.37 138.487C412.965 138.833 413.281 138.795 413.994 138.334L414.866 137.757L413.796 137.066C412.925 136.528 412.846 136.374 413.4 136.144C413.757 136.028 413.955 136.067 413.836 136.259C413.717 136.451 413.955 136.682 414.351 136.797C414.945 136.912 415.024 136.797 414.866 136.144C414.707 135.337 414.707 135.337 415.302 136.105C415.618 136.528 416.054 136.758 416.213 136.566C416.371 136.413 416.252 136.297 415.935 136.297C415.42 136.297 418.708 134.53 429.442 129.113C432.175 127.73 434.79 126.193 435.305 125.694C435.82 125.194 436.414 124.772 436.691 124.772C436.968 124.772 436.849 125.002 436.493 125.31C435.463 126.039 435.622 126.347 436.81 125.924C438.077 125.463 438.275 125.463 437.959 125.924C437.8 126.155 437.998 126.193 438.434 126.078C439.701 125.694 437.76 127.077 435.899 127.884C434.988 128.306 434.116 128.806 433.958 129.036C433.839 129.267 437.404 127.615 441.92 125.425C446.396 123.196 450 121.583 449.921 121.813C449.802 122.236 441.484 126.654 432.136 131.341C427.066 133.877 428.571 133.646 433.918 131.111C435.463 130.381 437.325 129.766 438.038 129.766C438.79 129.766 439.305 129.612 439.186 129.42C439.028 129.228 439.345 129.19 439.82 129.305C440.573 129.497 440.612 129.574 440.018 129.689C439.662 129.766 439.424 129.958 439.543 130.15C439.662 130.304 439.345 130.381 438.87 130.266C438.196 130.15 438.117 130.189 438.513 130.458C438.909 130.765 438.711 130.957 437.602 131.341C436.81 131.61 436.176 131.994 436.176 132.187C436.176 132.34 437.364 131.879 438.87 131.149C445.088 128.037 448.059 126.693 448.059 127.038C448.059 127.384 440.018 131.726 430.631 136.413C424.729 139.371 424.372 139.601 425.996 139.217C426.868 139.025 427.066 139.064 426.828 139.448C426.67 139.755 426.709 139.832 426.907 139.64C427.105 139.448 427.264 139.102 427.264 138.91C427.264 138.679 427.501 138.41 427.818 138.295C428.175 138.18 428.254 138.295 428.056 138.603C427.858 138.948 428.016 138.987 428.69 138.795C429.403 138.603 429.284 138.756 428.294 139.371C427.581 139.832 426.709 140.101 426.392 139.986C426.036 139.832 425.957 139.909 426.115 140.216C426.313 140.524 426.194 140.562 425.719 140.408C425.283 140.255 425.125 140.293 425.283 140.562C425.442 140.792 425.323 140.946 425.046 140.908C424.214 140.792 422.709 141.33 422.907 141.676C422.986 141.83 421.6 142.752 419.817 143.712C414.985 146.363 414.391 147.016 418.946 144.711C422.352 143.021 427.185 140.524 429.403 139.371C437.285 135.222 444.613 131.687 444.811 131.879C444.97 132.033 444.93 132.225 444.692 132.34C444.494 132.417 442.672 133.339 440.652 134.376L437.048 136.297L437.483 137.45C437.721 138.065 438.157 138.603 438.394 138.603C439.107 138.603 443.227 136.413 444.851 135.183C445.643 134.607 446.673 133.992 447.188 133.839C447.663 133.685 448.059 133.301 448.059 132.993C448.059 132.724 448.693 131.649 449.525 130.65C450.317 129.612 451.545 127.538 452.297 125.963C453.763 122.812 455.585 116.55 455.585 114.552C455.585 113.861 455.704 113.208 455.902 113.092C456.258 112.9 456.14 114.898 455.625 117.818C455.308 119.662 455.347 119.854 455.823 119.201C456.14 118.778 456.298 118.24 456.219 118.01C456.14 117.779 456.298 116.819 456.655 115.897C456.971 114.975 457.328 113.361 457.407 112.362C457.486 111.325 457.645 110.326 457.803 110.134C457.922 109.942 457.724 109.788 457.368 109.788C457.011 109.788 456.773 109.558 456.892 109.289C456.971 109.058 457.249 108.866 457.486 108.905C457.764 108.981 457.843 107.445 457.764 104.486C457.645 99.9913 457.684 99.9913 458.714 104.41C459.19 106.484 459.269 107.983 458.873 107.752C458.675 107.637 458.516 109.212 458.477 111.248C458.437 113.323 458.318 115.474 458.16 116.127C457.922 117.242 457.922 117.242 458.516 116.55C458.873 116.127 459.15 116.012 459.15 116.243C459.15 117.088 459.942 116.704 460.18 115.743C460.378 114.975 460.536 114.86 460.932 115.167C461.329 115.513 461.566 115.397 461.923 114.783C462.24 114.206 462.517 114.053 462.794 114.322C463.388 114.898 466.676 112.093 466.676 111.056C466.676 110.749 466.834 110.595 467.032 110.749C467.23 110.864 467.627 110.71 467.943 110.441C468.221 110.172 468.736 109.827 469.092 109.711C469.924 109.404 470.756 105.063 470.399 102.911C470.241 101.874 470.28 101.336 470.558 101.336C470.795 101.336 470.914 101.067 470.756 100.721C470.478 99.9913 469.964 100.491 469.766 101.682C469.726 102.22 469.409 102.681 469.092 102.796C468.775 102.911 468.656 102.796 468.815 102.527C469.171 101.989 468.815 101.989 467.825 102.489C466.557 103.18 466.914 103.756 468.458 103.487C469.251 103.334 469.845 103.372 469.845 103.603C469.845 103.795 469.013 104.025 467.983 104.102C466.557 104.217 465.923 104.064 465.408 103.564C465.012 103.18 464.379 102.873 464.022 102.873C463.428 102.873 463.467 102.796 464.141 102.296C464.537 101.989 465.171 101.72 465.527 101.72C465.884 101.72 466.478 101.374 466.834 100.99C467.508 100.299 469.251 99.6071 469.964 99.7608C470.162 99.7992 470.201 99.6456 470.043 99.415C469.924 99.2229 470.003 99.0308 470.28 99.0308C471.073 99.0308 470.439 90.6555 469.29 86.122C468.379 82.549 467.864 81.0507 466.082 76.9399C465.725 76.0946 465.567 75.5568 465.804 75.7873C466.359 76.3636 468.458 81.5501 469.409 84.7005C470.478 88.1967 471.231 88.8498 470.914 85.9299C470.162 78.9376 464.418 68.334 459.229 64.3C457.764 63.1474 455.862 61.4954 454.991 60.6117C451.505 57.0387 444.257 52.4284 443.86 53.5042C443.742 53.7731 442.949 54.1189 442.078 54.2726C441.246 54.4262 440.454 54.6952 440.335 54.8873C440.137 55.1562 439.543 55.4636 436.968 56.5393C436.651 56.693 435.622 57.1924 434.711 57.6919C433.047 58.5371 433.047 58.5755 433.72 59.4976L434.354 60.4196L432.849 59.536C432.017 59.0365 431.225 58.7292 431.106 58.8444C431.027 58.9597 430.551 58.8444 430.076 58.6139C429.324 58.2297 429.284 58.2297 429.799 58.806C430.591 59.7665 430.195 59.6512 425.759 57.4998C420.768 55.0409 419.5 54.6183 414.826 53.6579C410.707 52.8511 409.162 52.8126 406.27 53.4273ZM445.445 70.8312C446.237 71.5996 446.237 72.099 445.484 72.4064C444.771 72.6369 443.306 71.5228 443.306 70.716C443.306 70.0244 444.692 70.0628 445.445 70.8312ZM441.167 71.6764C442.118 72.2911 445.286 76.9014 445.286 77.6314C445.286 78.1693 444.771 77.6314 443.821 76.0178C442.989 74.6731 441.84 73.0595 441.246 72.4832C440.256 71.4075 440.216 71.0617 441.167 71.6764ZM465.488 75.1342C465.488 75.2878 465.131 74.8652 464.695 74.2505C464.26 73.5974 463.903 72.9058 463.903 72.7137C463.903 72.4832 464.26 72.9058 464.695 73.5974C465.131 74.2889 465.488 74.9805 465.488 75.1342ZM448.455 101.105C448.455 102.104 448.218 101.797 447.901 100.376C447.703 99.5303 447.742 99.3766 448.059 99.7992C448.257 100.107 448.455 100.721 448.455 101.105ZM456.021 108.444C455.704 112.209 455.704 112.247 455.625 109.558C455.585 107.022 455.902 104.217 456.219 104.525C456.298 104.563 456.179 106.369 456.021 108.444ZM415.183 134.3C415.183 134.453 413.163 135.606 410.667 136.874C408.172 138.142 406.231 139.294 406.31 139.448C406.389 139.601 406.27 139.832 406.033 139.986C405.716 140.139 405.676 140.101 405.835 139.832C406.27 139.102 405.914 139.256 401.557 141.484C399.299 142.637 397.081 143.597 396.606 143.597C396.13 143.597 394.665 144.135 393.358 144.788C392.05 145.403 390.743 145.864 390.506 145.787C390.228 145.71 391.139 145.095 392.526 144.404C394.823 143.29 395.417 142.444 393.952 142.444C393.635 142.444 393.437 142.291 393.556 142.099C393.674 141.945 394.506 141.983 395.378 142.176C396.962 142.598 397.12 142.56 405.795 138.295C410.628 135.913 414.707 133.992 414.866 133.992C415.064 133.992 415.183 134.108 415.183 134.3ZM435.82 134.761C435.305 135.183 434.592 135.529 434.235 135.567C433.72 135.567 433.76 135.644 434.394 135.952C435.067 136.259 434.988 136.259 434.116 136.105C433.245 135.952 433.086 136.028 433.245 136.489C433.443 136.912 433.324 136.989 432.77 136.797C432.334 136.643 432.175 136.682 432.334 136.951C432.492 137.181 432.215 137.258 431.581 137.143C430.868 137.027 430.71 136.874 431.066 136.643C431.344 136.489 431.7 136.413 431.859 136.528C432.017 136.605 432.215 136.528 432.294 136.336C432.413 136.028 436.097 134.031 436.572 134.031C436.691 134.031 436.335 134.376 435.82 134.761ZM393.952 137.143C393.833 137.335 393.476 137.296 393.159 137.027C392.882 136.797 392.724 136.451 392.843 136.221C392.961 136.028 393.318 136.067 393.635 136.336C393.912 136.566 394.07 136.912 393.952 137.143ZM430.235 138.218C430.235 138.718 429.799 138.718 429.046 138.218C428.571 137.911 428.611 137.834 429.363 137.834C429.838 137.834 430.235 137.988 430.235 138.218ZM398.348 150.743C398.903 150.974 398.824 151.127 397.873 151.703C397.279 152.126 396.487 152.433 396.17 152.395C395.774 152.395 395.853 152.28 396.368 152.049C396.843 151.857 396.922 151.703 396.606 151.703C396.17 151.665 396.209 151.511 396.804 151.089C397.715 150.436 397.556 150.474 398.348 150.743Z" fill="#FF1212"/>
<path d="M369.71 69.6402C369.789 74.4042 369.948 75.9794 370.344 75.9794C370.581 75.9794 370.819 75.7873 370.819 75.5567C370.819 75.2878 371.374 75.1726 372.206 75.2878C372.998 75.3646 373.592 75.2878 373.592 75.0189C373.592 74.8268 373.869 74.9805 374.186 75.3646C374.78 76.133 374.78 76.133 374.78 75.3646C374.78 74.7499 374.859 74.7115 375.176 75.211C375.493 75.672 375.572 75.672 375.572 75.0189C375.572 74.5963 375.929 74.02 376.365 73.751C377.038 73.3284 377.196 73.3669 377.434 73.9431C377.672 74.5194 377.711 74.5194 377.989 73.8279C378.266 73.1748 378.305 73.1748 378.305 73.9431C378.345 74.6731 378.583 74.8268 379.652 74.8268C380.326 74.8268 381.316 74.942 381.831 75.0573C382.663 75.2878 382.702 75.211 382.702 72.6753C382.702 71.2154 382.583 69.1023 382.425 67.9882C382.187 66.0672 382.148 66.0288 381.593 66.7972C381.118 67.4887 381.078 67.6808 381.554 67.9498C381.989 68.2187 381.95 68.2955 381.435 68.2955C381.039 68.2955 380.722 68.0266 380.722 67.7192C380.722 67.0661 380.088 66.9124 379.85 67.5271C379.811 67.7192 379.335 67.7961 378.86 67.6808C378.345 67.5271 378.028 67.2966 378.147 67.143C378.266 66.9509 378.702 66.9124 379.137 67.0277C379.573 67.143 379.929 67.0661 379.929 66.8356C379.929 66.6051 379.533 66.3746 379.058 66.2593C378.147 66.1056 378.147 66.1056 379.137 65.683C379.811 65.4141 379.929 65.2604 379.454 65.2604C379.098 65.222 378.543 65.4909 378.187 65.7983C377.592 66.413 374.78 66.6051 374.78 66.0672C374.78 65.8751 375.295 65.7983 375.929 65.9135C377.157 66.0672 377.672 65.6446 377.315 64.6841C376.959 63.8005 376.404 63.9158 376.642 64.8378C376.761 65.2604 376.642 65.6062 376.404 65.6062C376.167 65.6062 375.968 65.4525 375.968 65.2604C375.968 65.0683 375.85 64.6457 375.731 64.3384C375.572 63.9158 375.81 63.6852 376.444 63.57C376.959 63.4931 375.612 63.3779 373.473 63.3395L369.631 63.301L369.71 69.6402ZM380.326 68.6413C380.88 68.795 381.118 68.9871 380.92 69.1408C380.682 69.256 380.009 69.1023 379.335 68.8334C378.068 68.2955 378.662 68.1803 380.326 68.6413Z" fill="#FF1212"/>
<path d="M406.864 65.6062C407.617 66.1057 408.053 66.1057 408.053 65.6062C408.053 65.3757 407.657 65.222 407.181 65.222C406.429 65.222 406.389 65.2988 406.864 65.6062Z" fill="#FF1212"/>
<path d="M346.578 67.3735C346.459 67.4887 345.785 67.604 345.112 67.604C344.439 67.6424 344.003 67.7961 344.122 67.9882C344.399 68.4492 346.578 68.3724 346.855 67.8729C347.172 67.4503 346.934 67.0277 346.578 67.3735Z" fill="#FF1212"/>
<path d="M349.469 70.3702C349.865 70.716 354.658 72.1759 354.817 72.0222C354.935 71.907 353.906 71.4844 352.559 71.0233C350.261 70.255 349.073 70.0244 349.469 70.3702Z" fill="#FF1212"/>
<path d="M341.508 71.5996C341.508 71.8685 343.567 72.5601 343.765 72.368C343.845 72.2911 343.369 72.0606 342.736 71.8301C342.062 71.5996 341.508 71.4843 341.508 71.5996Z" fill="#FF1212"/>
<path d="M358.738 72.5216C358.857 72.7137 358.698 72.9058 358.461 73.0211C358.184 73.0979 358.619 73.3669 359.451 73.6358C360.283 73.9047 361.075 74.0584 361.154 73.9432C361.273 73.8279 360.758 73.6358 360.045 73.4821C358.976 73.2132 358.857 73.1364 359.491 72.9058C360.243 72.6753 360.243 72.6369 359.411 72.4448C358.936 72.2911 358.619 72.368 358.738 72.5216Z" fill="#FF1212"/>
<path d="M344.874 72.9058C345.31 73.0979 345.944 73.2516 346.261 73.2516C346.617 73.2516 346.578 73.0979 346.063 72.9058C345.627 72.7138 344.993 72.5601 344.676 72.5601C344.32 72.5601 344.36 72.7138 344.874 72.9058Z" fill="#FF1212"/>
<path d="M356.163 76.402C361.748 78.3613 365.076 79.4371 365.353 79.3602C365.789 79.2066 355.332 75.5952 354.579 75.5952C354.262 75.6336 354.975 75.9794 356.163 76.402Z" fill="#FF1212"/>
<path d="M375.137 77.6314C375.335 77.8235 375.968 77.9003 376.602 77.8235C377.672 77.7082 377.632 77.6698 376.285 77.4777C375.414 77.3625 374.939 77.4393 375.137 77.6314Z" fill="#FF1212"/>
<path d="M366.145 79.6292C366.264 79.7444 368.443 80.5128 371.057 81.358C375.889 82.9332 377.989 83.3174 377.276 82.3954C377.038 82.1648 376.879 81.358 376.919 80.6665C376.959 79.7829 376.8 79.4371 376.325 79.4371C375.889 79.4371 375.731 79.7829 375.77 80.7818C375.77 81.7038 375.612 82.1264 375.255 82.1264C374.939 82.1264 372.8 81.5117 370.542 80.7818C366.383 79.4371 365.749 79.2834 366.145 79.6292Z" fill="#FF1212"/>
<path d="M411.855 80.6281C410.865 81.7807 410.35 84.3932 411.222 83.8553C411.697 83.5864 413.479 83.2022 414.509 83.1253C414.984 83.1253 415.183 82.7796 415.183 81.8575C415.183 81.166 414.984 80.5897 414.747 80.5897C414.549 80.5897 414.43 80.436 414.549 80.2439C414.786 79.9365 413.955 79.4371 413.202 79.4371C413.044 79.4371 412.41 79.975 411.855 80.6281Z" fill="#FF1212"/>
<path d="M398.586 81.3965C398.586 81.8959 398.744 82.6643 398.942 83.0869C399.22 83.6248 399.259 83.3943 399.061 82.3185C398.784 80.5513 398.546 80.0518 398.586 81.3965Z" fill="#FF1212"/>
<path d="M406.27 82.4338C406.033 83.9321 406.468 85.6994 407.26 86.1605C407.617 86.3526 407.617 86.1989 407.26 85.5842C406.983 85.0847 406.785 83.8553 406.785 82.8564C406.785 81.8191 406.706 80.9739 406.666 80.9739C406.587 80.9739 406.429 81.627 406.27 82.4338Z" fill="#FF1212"/>
<path d="M341.904 83.6248V85.8915L345.231 85.9299C348.915 86.0068 352.797 86.852 356.282 88.3887C357.51 88.965 358.54 89.3108 358.54 89.1955C358.54 89.0803 357.906 88.7345 357.154 88.4272C355.688 87.8509 355.213 87.0441 356.56 87.3898C356.995 87.5051 357.352 87.7356 357.352 87.8893C357.352 88.0814 357.708 88.3503 358.144 88.4656C358.58 88.5808 358.936 88.965 358.936 89.3108C358.936 89.8487 359.055 89.8487 359.887 89.2724C360.481 88.8882 360.956 88.8114 361.115 89.0419C361.234 89.2724 361.748 89.4261 362.224 89.4261C363.333 89.4261 364.363 90.0408 363.967 90.4634C363.769 90.6171 363.491 90.5018 363.293 90.1944C363.095 89.8871 362.818 89.7718 362.659 89.9255C362.501 90.0792 362.501 90.3097 362.62 90.425C362.976 90.7707 364.878 90.9628 364.838 90.6555C364.719 89.8487 365.036 89.8871 366.264 90.8091C367.017 91.347 367.65 91.6544 367.65 91.5007C367.65 91.3086 366.977 90.7323 366.145 90.1944C364.6 89.1955 363.452 88.6577 364.482 89.4261C364.996 89.8103 364.996 89.8487 364.482 89.695C364.165 89.6182 363.887 89.1955 363.887 88.7729C363.887 88.3119 363.729 87.8125 363.531 87.6204C363.333 87.4283 363.293 87.5051 363.452 87.774C363.848 88.4656 363.65 88.3887 361.59 87.313C359.808 86.3141 358.54 85.2 359.174 85.2C359.372 85.2 359.095 84.8542 358.54 84.4316C357.035 83.3174 357.867 83.0869 359.53 84.1626C360.481 84.7773 360.798 85.2 360.441 85.3152C360.006 85.4689 360.006 85.5457 360.441 85.5457C360.719 85.5841 360.837 85.7762 360.719 85.9683C360.56 86.2373 360.837 86.2757 361.511 86.122C362.263 85.9299 362.778 86.0836 363.412 86.6215C364.402 87.4667 367.294 89.234 367.73 89.234C367.888 89.234 368.403 89.5413 368.839 89.8871C369.274 90.2713 369.789 90.5786 369.948 90.5786C370.106 90.5786 370.423 90.9628 370.621 91.4239C370.859 91.9233 371.255 92.2691 371.532 92.1922C371.809 92.1538 372.007 92.2691 372.007 92.4996C372.007 92.6917 372.285 92.8838 372.602 92.8838C372.919 92.8838 373.196 93.0759 373.196 93.3064C373.196 93.4985 372.958 93.5753 372.72 93.4216C372.324 93.2296 372.324 93.268 372.681 93.6522C373.077 94.0748 373.275 94.0748 373.869 93.6137C374.503 93.1143 374.543 93.1527 374.067 93.729C373.75 94.0748 373.631 94.5742 373.79 94.8432C374.028 95.1505 374.186 95.1505 374.424 94.7663C374.622 94.4205 374.859 94.5358 375.216 95.3042C375.493 95.8805 375.85 96.3415 376.048 96.3415C376.206 96.3415 376.325 96.4568 376.325 96.6104C376.206 97.4172 376.444 97.8783 377.157 98.2625C377.949 98.6851 377.949 98.5698 377.751 91.347C377.672 87.313 377.474 83.8553 377.355 83.6632C377.196 83.4327 376.761 83.279 376.325 83.279C375.731 83.279 375.572 83.5479 375.533 84.5084C375.493 85.2 375.533 86.0452 375.572 86.3525C375.612 86.6983 374.978 86.3525 374.107 85.5457C372.602 84.1626 370.898 83.2406 371.453 84.0858C371.611 84.3932 371.413 84.4316 370.819 84.2395C370.265 84.0858 369.829 84.1242 369.631 84.4316C369.472 84.7005 368.997 84.7773 368.522 84.6621C367.452 84.3163 367.848 83.1253 368.878 83.3943C369.829 83.6248 370.265 82.9716 369.631 82.3954C369.235 82.0496 369.195 82.0496 369.433 82.4722C369.67 82.8564 369.512 82.8948 368.799 82.7027C368.284 82.549 367.73 82.2417 367.611 82.0496C367.492 81.8575 367.135 81.9728 366.858 82.3185C366.462 82.7796 366.462 82.8948 367.017 82.8948C367.373 82.8948 367.65 83.0869 367.65 83.3174C367.65 83.5479 367.373 83.6632 367.056 83.5095C366.62 83.3558 366.462 83.5479 366.462 84.2011C366.462 85.0463 366.383 85.0847 365.511 84.7005C364.64 84.3163 364.64 84.2011 365.234 83.7785C365.749 83.3558 365.67 83.3558 364.68 83.74C364.046 84.009 363.372 84.3932 363.174 84.6237C363.016 84.8542 362.818 84.6621 362.659 84.1626C362.343 83.0485 361.432 82.7411 361.194 83.7016C360.917 84.6621 360.124 84.6621 360.124 83.7016C360.124 82.6643 358.778 81.2044 358.065 81.4733C357.233 81.7807 356.876 84.8542 357.708 84.7005C358.025 84.6621 358.342 84.8158 358.421 85.0463C358.5 85.3152 358.184 85.4305 357.55 85.2768C356.876 85.1615 356.599 84.931 356.718 84.5853C356.837 84.2779 356.758 84.0474 356.56 84.0474C356.322 84.0474 356.203 83.9321 356.203 83.74C356.243 83.5864 356.203 82.9332 356.163 82.3185L356.084 81.166L355.728 82.3185C355.53 82.9332 355.45 83.6632 355.53 83.9321C355.728 84.4316 354.817 84.8926 354.421 84.5084C354.262 84.3932 352.876 84.2011 351.252 84.1242C349.113 84.0474 347.806 84.2011 346.023 84.7773C344.558 85.2384 343.528 85.3921 343.33 85.1615C343.092 84.931 343.132 84.8158 343.409 84.8158C343.686 84.8158 344.122 84.6237 344.399 84.3547C344.795 84.009 344.637 83.6632 343.726 82.6259C343.092 81.9343 342.419 81.358 342.221 81.358C342.062 81.358 341.904 82.3569 341.904 83.6248ZM362.699 88.5424C363.412 89.0803 363.412 89.1187 362.778 88.8882C362.382 88.7729 361.867 88.6577 361.669 88.6577C361.471 88.6577 361.313 88.4656 361.313 88.2735C361.313 87.7356 361.788 87.8125 362.699 88.5424Z" fill="#FF1212"/>
<path d="M381.91 83.0869C381.633 83.74 381.593 85.661 381.791 88.3887L382.108 92.6917L382.306 87.5051C382.425 84.6621 382.465 82.2417 382.425 82.1648C382.385 82.088 382.148 82.5106 381.91 83.0869Z" fill="#FF1212"/>
<path d="M416.094 85.4689C415.975 85.8531 415.777 86.3141 415.658 86.5062C415.539 86.6983 415.697 86.7751 415.975 86.6599C416.292 86.583 416.529 86.122 416.569 85.661C416.648 84.6621 416.45 84.5852 416.094 85.4689Z" fill="#FF1212"/>
<path d="M384.564 85.8531C384.405 85.9684 384.287 86.852 384.287 87.7356C384.287 89.3492 385.356 90.9628 386.426 90.9628C386.624 90.9628 386.426 90.6171 385.95 90.1944C385.118 89.4261 384.881 88.4656 385.079 86.4294C385.118 85.5457 385 85.3921 384.564 85.8531Z" fill="#FF1212"/>
<path d="M397.239 86.4678C396.605 86.9288 395.575 89.0419 396.011 89.0419C396.09 89.0419 396.803 88.7729 397.596 88.4656C398.863 87.9661 398.942 87.8509 398.507 87.0441C398.269 86.5446 397.992 86.122 397.952 86.0836C397.912 86.0068 397.596 86.1988 397.239 86.4678Z" fill="#FF1212"/>
<path d="M342.221 87.2746C340.913 87.6588 341.23 87.6972 344.993 87.7356C348.004 87.7356 349.667 87.9661 350.776 88.3888C352.598 89.1571 353.708 89.234 352.004 88.4656C350.539 87.8509 350.856 87.7356 352.519 88.3119C353.232 88.5424 353.708 88.8498 353.628 88.965C353.549 89.1187 353.985 89.234 354.579 89.2724C356.718 89.3492 362.818 93.4985 367.373 97.9935C369.71 100.299 371.611 101.989 371.611 101.759C371.611 101.029 363.65 93.5369 361.115 91.8465C357.787 89.6566 354.341 88.043 351.529 87.3514C348.756 86.6599 344.36 86.6215 342.221 87.2746Z" fill="#FF1212"/>
<path d="M330.654 87.4283C330.536 87.6204 330.813 88.043 331.249 88.3887C332.001 89.0419 332.358 90.8476 331.605 90.3865C331.407 90.2713 331.209 90.3865 331.209 90.7323C331.209 91.0397 331.09 91.5775 330.932 91.9617C330.694 92.6148 330.773 92.5764 332.001 91.8849C334.378 90.5402 334.417 87.1209 332.041 87.1209C331.407 87.1209 330.773 87.2746 330.654 87.4283Z" fill="#FF1212"/>
<path d="M391.456 89.0803C391.416 89.9639 391.694 90.7707 392.129 91.2318C392.486 91.616 392.644 91.7312 392.446 91.4239C392.209 91.1165 391.931 90.1944 391.773 89.3108L391.535 87.6972L391.456 89.0803Z" fill="#FF1212"/>
<path d="M335.566 92.8838C334.497 93.1143 334.932 93.1911 337.349 93.2296C341.151 93.268 344.399 94.0364 347.647 95.5731C348.954 96.1878 350.063 96.6104 350.143 96.5336C350.222 96.4568 349.39 95.9573 348.321 95.4194C347.211 94.8816 346.221 94.2669 346.063 94.0364C345.31 92.8454 354.104 98.3393 356.995 100.875C362.818 105.946 368.68 114.936 371.77 123.581C374.067 129.997 374.939 135.106 374.978 142.444C374.978 148.054 374.859 149.129 374.067 151.665C372.879 155.315 371.532 157.889 369.512 160.309L367.967 162.23L369.631 160.578C370.542 159.656 371.413 159.003 371.532 159.118C371.928 159.541 373.196 158.081 373.196 157.197C373.196 156.544 373.354 156.352 373.79 156.506C374.344 156.736 374.542 156.314 374.424 155.2C374.384 154.969 374.503 154.739 374.701 154.739C375.137 154.739 376.087 152.164 375.81 151.703C375.652 151.511 375.77 151.281 376.008 151.204C376.246 151.127 376.483 150.474 376.563 149.744C376.642 148.86 376.879 148.438 377.236 148.515C377.632 148.63 377.672 148.553 377.276 148.169C376.721 147.631 376.563 146.901 377.078 147.17C377.236 147.285 377.236 144.558 377.117 141.177C376.84 134.108 376.048 130.227 373.513 123.619C368.403 110.364 358.817 98.7619 349.628 94.6511C345.865 92.9606 343.805 92.4996 340.359 92.538C338.497 92.5764 336.319 92.7301 335.566 92.8838Z" fill="#FF1212"/>
<path d="M444.177 93.3448C444.256 93.8058 444.494 94.2284 444.732 94.3053C445.009 94.3821 445.128 94.0748 445.009 93.4601C444.771 92.3075 443.979 92.1538 444.177 93.3448Z" fill="#FF1212"/>
<path d="M439.147 96.8794C437.206 97.8399 435.661 98.6082 435.78 98.6082C436.453 98.7235 443.306 95.7652 443.306 95.381C443.306 94.9968 442.632 95.2274 439.147 96.8794Z" fill="#FF1212"/>
<path d="M439.464 97.8783C438.949 98.0704 438.553 98.3393 438.553 98.4545C438.553 98.8003 439.186 98.6466 439.978 98.0704C440.85 97.4556 440.731 97.3788 439.464 97.8783Z" fill="#FF1212"/>
<path d="M445.92 99.7608C445.722 100.03 445.801 100.452 446.039 100.683C446.593 101.221 446.831 100.913 446.475 100.03C446.277 99.4535 446.118 99.415 445.92 99.7608Z" fill="#FF1212"/>
<path d="M374.384 100.837C373.037 101.413 372.404 101.951 372.404 102.604C372.404 102.796 372.602 102.796 372.8 102.681C373.394 102.335 373.275 102.988 372.404 104.909C371.096 107.79 372.087 108.905 376.127 109.173C376.602 109.212 376.919 109.442 376.88 109.711C376.8 109.98 377.038 110.172 377.355 110.172C377.711 110.172 377.949 110.518 377.949 111.133C377.949 111.671 378.147 112.093 378.385 112.093C378.583 112.093 378.662 112.247 378.543 112.478C378.424 112.67 378.424 112.862 378.583 112.862C379.058 112.862 380.128 111.402 381.078 109.442L382.029 107.521L379.692 103.948C377.117 100.107 376.721 99.8376 374.384 100.837ZM376.919 103.603C377.394 104.102 377.553 104.64 377.355 105.216C377.078 106.062 377.038 106.062 376.523 105.37C375.77 104.371 375.85 104.986 376.602 106.138C376.959 106.676 377.196 107.099 377.117 107.137C374.622 107.675 373.711 107.099 374.384 105.37C374.622 104.794 374.701 104.217 374.622 104.102C374.503 103.987 374.305 104.217 374.146 104.563C374.028 104.909 373.75 105.178 373.552 105.178C373.077 105.178 373.631 103.91 374.344 103.372C375.255 102.681 376.127 102.758 376.919 103.603Z" fill="#FF1212"/>
<path d="M439.067 104.486C433.403 107.329 431.66 108.482 436.255 106.407C440.573 104.448 441.682 104.025 441.88 104.371C441.999 104.563 442.474 104.794 442.91 104.909C443.385 105.024 443.623 104.947 443.464 104.717C443.306 104.486 443.464 104.179 443.741 103.987C444.098 103.718 443.9 103.68 443.108 103.833C442.197 103.987 442.117 103.949 442.712 103.68C443.464 103.372 445.247 101.72 444.851 101.72C444.732 101.72 442.157 102.988 439.067 104.486Z" fill="#FF1212"/>
<path d="M396.17 107.714C394.11 108.636 390.822 110.057 388.921 110.902L385.435 112.478L386.307 113.592C386.861 114.322 387.772 114.86 389 115.167C392.209 115.974 392.446 115.974 390.426 115.013C389.357 114.514 388.723 114.053 389.079 114.053C389.436 114.014 389.832 113.784 389.951 113.476C390.07 113.169 390.505 113.015 390.941 113.131C391.337 113.208 391.971 113.015 392.327 112.708C392.644 112.362 393.12 112.093 393.318 112.093C393.516 112.093 394.031 111.632 394.387 111.018C395.298 109.673 396.645 108.405 397.081 108.559C397.279 108.597 397.318 108.52 397.199 108.328C397.081 108.136 397.675 107.675 398.546 107.291C399.418 106.907 400.131 106.446 400.131 106.254C400.131 106.1 400.091 105.946 400.051 105.985C399.972 106.023 398.229 106.792 396.17 107.714Z" fill="#FF1212"/>
<path d="M385.277 107.521C384.96 108.444 385.237 108.828 385.871 108.444C386.228 108.213 386.228 108.059 385.831 107.79C385.277 107.445 385.713 107.483 387.852 108.098C389.159 108.444 388.763 107.867 387.257 107.253C385.554 106.561 385.594 106.561 385.277 107.521Z" fill="#FF1212"/>
<path d="M438.156 110.749L436.374 111.671L438.869 111.632C440.256 111.594 441.484 111.402 441.563 111.248C441.682 111.056 441.642 110.941 441.444 110.979C441.286 111.018 440.691 111.018 440.137 110.979C439.186 110.902 439.186 110.902 439.899 110.365C441.088 109.481 440.137 109.711 438.156 110.749Z" fill="#FF1212"/>
<path d="M436.453 112.708C436.73 112.823 436.849 113.131 436.73 113.438C436.612 113.707 436.73 114.053 436.968 114.206C437.325 114.437 437.325 114.591 436.929 114.86C436.532 115.128 436.572 115.205 437.206 115.052C437.721 114.936 438.038 115.09 438.038 115.436C438.038 115.782 437.76 115.935 437.364 115.82C436.968 115.743 436.691 115.897 436.691 116.166C436.691 116.473 436.77 116.704 436.849 116.704C437.206 116.704 441.721 114.36 441.721 114.168C441.721 114.053 441.563 114.091 441.325 114.206C441.127 114.322 440.929 114.168 440.929 113.861C440.929 113.515 440.573 113.246 440.137 113.246C439.701 113.246 439.345 113.054 439.345 112.862C439.345 112.631 438.592 112.478 437.681 112.516C436.73 112.516 436.176 112.631 436.453 112.708Z" fill="#FF1212"/>
<path d="M341.508 113.246C342.696 113.4 344.122 113.63 344.676 113.784L345.667 114.053L344.676 113.476C344.082 113.131 342.815 112.9 341.508 112.939L339.329 112.977L341.508 113.246Z" fill="#FF1212"/>
<path d="M378.543 113.592C378.424 113.784 378.504 114.053 378.741 114.206C379.256 114.514 380.524 117.395 381.95 121.391C384.247 127.999 385.118 133.147 385.118 139.947C385.118 147.554 383.534 153.317 380.642 156.506C379.969 157.236 379.969 157.351 380.524 157.812C380.999 158.196 381.118 158.196 381.118 157.735C381.118 157.466 381.712 156.083 382.465 154.739C383.217 153.355 384.247 150.858 384.762 149.168C385.554 146.44 385.673 145.287 385.673 138.987C385.633 132.878 385.515 131.341 384.722 128.229C383.692 124.08 382.465 120.546 380.603 116.243C379.375 113.323 379.018 112.862 378.543 113.592Z" fill="#FF1212"/>
<path d="M395.774 116.78C391.496 118.778 388.683 120.315 389.04 120.469C392.684 121.737 393.714 121.967 394.229 121.621C394.664 121.314 394.625 121.276 394.07 121.468C393.635 121.583 393.437 121.544 393.595 121.314C393.714 121.083 394.189 120.93 394.625 120.93C395.061 120.93 395.377 120.661 395.377 120.277C395.377 119.931 395.496 119.777 395.655 119.892C395.774 120.046 396.09 119.777 396.368 119.278C396.605 118.778 397.081 118.471 397.516 118.548C397.912 118.625 398.111 118.509 397.992 118.317C397.873 118.125 398.309 117.741 398.942 117.472C399.616 117.203 400.131 116.704 400.131 116.358C400.131 116.012 400.923 115.205 401.913 114.629C403.656 113.553 404.012 113.208 403.418 113.284C403.22 113.284 399.814 114.86 395.774 116.78Z" fill="#FF1212"/>
<path d="M430.63 115.782C430.63 116.319 430.789 116.665 430.987 116.55C431.185 116.435 431.264 115.974 431.145 115.551C430.868 114.475 430.63 114.591 430.63 115.782Z" fill="#FF1212"/>
<path d="M340.636 117.51C340.24 117.741 340.319 117.856 340.913 117.856C341.666 117.895 341.666 117.933 340.874 118.24C340.399 118.432 339.884 118.74 339.765 118.97C339.606 119.162 340.082 119.086 340.755 118.74C341.626 118.317 342.577 118.202 344.043 118.356C345.469 118.509 345.865 118.471 345.389 118.202C344.32 117.626 341.23 117.165 340.636 117.51Z" fill="#FF1212"/>
<path d="M367.254 117.587C367.254 117.741 367.532 118.509 367.888 119.316C369.037 121.813 370.383 125.694 370.185 125.886C370.106 125.963 369.75 125.732 369.433 125.31C369.116 124.925 368.839 124.733 368.839 124.887C368.839 125.079 369.195 125.655 369.631 126.193C370.106 126.769 370.423 126.962 370.423 126.654C370.423 125.655 371.176 127.154 372.047 129.958C373.156 133.57 373.117 133.531 373.156 132.648C373.196 131.687 371.73 127.154 370.067 123.081C368.759 119.931 367.294 117.049 367.254 117.587Z" fill="#FF1212"/>
<path d="M427.264 117.856C427.145 118.048 427.105 118.394 427.224 118.586C427.343 118.778 427.026 119.047 426.471 119.162C425.917 119.316 425.481 119.585 425.481 119.777C425.481 119.969 426.075 119.854 426.828 119.547C427.818 119.086 428.095 118.74 427.977 118.202C427.739 117.357 427.62 117.318 427.264 117.856Z" fill="#FF1212"/>
<path d="M400.051 122.735C394.863 125.194 390.624 127.307 390.624 127.423C390.624 127.807 393.912 128.69 394.15 128.345C394.268 128.191 394.981 127.73 395.694 127.384C396.724 126.846 396.962 126.808 396.883 127.269C396.803 127.538 396.962 127.807 397.16 127.807C397.398 127.807 397.516 127.538 397.437 127.23C397.358 126.923 397.596 126.693 397.952 126.693C398.309 126.693 398.467 126.846 398.348 127.077C398.229 127.269 398.309 127.461 398.546 127.461C398.784 127.461 399.061 127.192 399.22 126.846C399.338 126.539 399.695 126.347 399.972 126.462C400.289 126.577 400.527 126.501 400.527 126.27C400.527 126.001 400.012 125.924 399.14 126.078C397.398 126.424 397.358 126.116 399.061 125.31C399.735 124.964 400.487 124.426 400.646 124.119C400.883 123.734 401.359 123.619 402.032 123.773L403.101 124.003L402.111 123.427C401.24 122.928 401.2 122.889 401.913 122.851C402.349 122.851 403.22 122.428 403.854 121.89C404.488 121.352 405.953 120.507 407.102 119.969C408.251 119.431 409.32 118.817 409.439 118.625C409.756 118.125 410.588 117.741 400.051 122.735Z" fill="#FF1212"/>
<path d="M352.915 121.813C353.509 122.505 353.193 123.389 352.519 123.004C352.242 122.812 352.202 122.928 352.4 123.196C352.598 123.542 352.797 123.581 353.113 123.273C353.351 123.043 353.708 122.851 353.945 122.851C354.143 122.851 354.183 122.966 354.064 123.12C353.906 123.235 353.985 123.581 354.222 123.85C354.817 124.58 354.262 125.31 353.549 124.733C353.232 124.503 352.995 124.426 352.995 124.541C352.995 124.695 352.598 124.464 352.123 124.003C351.648 123.581 350.697 123.196 350.063 123.158C345.587 122.928 343.963 123.004 342.934 123.504L341.745 124.08L343.211 124.58C344.043 124.849 344.914 125.271 345.231 125.502C345.508 125.732 345.865 125.847 345.984 125.732C346.142 125.617 346.182 125.655 346.063 125.771C345.984 125.924 346.261 126.462 346.657 127C347.964 128.575 347.528 128.921 346.221 127.346C345.548 126.539 344.478 125.655 343.884 125.348C342.815 124.81 342.537 124.849 340.438 125.617C339.171 126.078 337.626 126.769 336.952 127.154C336.319 127.538 335.447 127.845 335.091 127.845C334.695 127.845 334.378 127.999 334.378 128.153C334.378 128.345 333.467 128.883 332.358 129.382C329.545 130.688 329.585 130.996 332.477 130.073C333.863 129.651 335.526 129.19 336.16 128.998C336.834 128.844 338.656 128.153 340.28 127.499C342.696 126.501 343.33 126.385 343.805 126.769C344.32 127.154 344.36 127.154 344.122 126.769C343.647 125.963 344.478 126.27 345.389 127.192C346.34 128.191 346.538 128.806 345.786 128.383C345.469 128.229 345.389 128.268 345.587 128.46C345.786 128.652 346.142 128.806 346.38 128.806C346.657 128.806 346.895 129.113 346.974 129.459C347.132 130.266 345.31 131.341 335.249 136.144C328.714 139.294 327.525 139.755 326.971 139.333C326.416 138.871 326.377 138.948 326.654 140.139C326.971 141.714 327.644 142.56 327.644 141.446C327.644 141.023 328.04 140.447 328.555 140.216C331.367 138.871 341.468 135.106 342.775 134.953C343.647 134.837 344.676 134.569 345.152 134.338C346.34 133.723 347.132 134.607 346.063 135.375C345.627 135.721 345.31 136.144 345.389 136.374C345.469 136.605 345.231 136.682 344.874 136.566C344.558 136.413 344.28 136.489 344.28 136.682C344.28 136.835 341.904 138.257 339.052 139.755C336.16 141.253 333.625 142.675 333.388 142.905C333.11 143.213 333.15 143.213 333.546 143.021C333.982 142.79 334.061 142.867 333.863 143.328C333.744 143.712 333.665 143.981 333.784 143.981C334.259 143.981 340.319 141.676 341.31 141.1C342.537 140.408 342.537 140.408 344.241 141.599C345.984 142.829 348.677 143.482 350.341 143.059C351.45 142.79 352.995 141.484 353.906 140.062C354.896 138.526 354.737 138.526 353.232 139.986C352.123 141.061 351.608 141.292 350.182 141.292C347.885 141.292 345.231 140.024 344.954 138.756C344.835 137.988 345.073 137.642 346.419 136.758C347.726 135.913 348.083 135.375 348.4 133.992C348.796 132.263 348.796 132.263 348.954 133.531C349.034 134.261 348.836 135.222 348.439 135.76C347.885 136.605 347.885 136.682 348.439 136.682C349.311 136.682 350.737 135.913 351.172 135.222C351.45 134.761 351.569 134.761 351.846 135.183C352.163 135.644 352.282 135.644 352.598 135.145C352.915 134.645 352.995 134.684 353.034 135.337C353.034 135.76 353.153 135.913 353.232 135.644C353.351 135.375 353.668 135.26 353.945 135.375C354.539 135.606 355.49 133.493 355.054 132.993C354.896 132.84 355.015 132.84 355.292 132.993C355.569 133.147 355.767 133.493 355.728 133.723C355.569 134.876 355.807 135.529 356.361 135.529C356.956 135.529 357.154 136.144 357.035 137.642C356.956 138.257 357.035 138.295 357.352 137.834C357.55 137.527 357.748 136.489 357.748 135.529C357.748 134.261 357.867 133.954 358.144 134.376C358.342 134.684 358.54 134.761 358.58 134.569C358.619 134.338 358.698 133.992 358.738 133.8C358.817 133.57 358.857 133.185 358.896 132.917C358.896 132.686 359.095 132.455 359.332 132.455C359.53 132.455 359.609 132.724 359.491 133.032C359.332 133.416 359.491 133.608 360.085 133.608C360.56 133.608 360.917 133.416 360.917 133.224C360.917 132.993 361.194 132.84 361.511 132.84C361.788 132.84 362.263 132.532 362.461 132.148C362.699 131.764 362.897 131.687 362.897 131.994C362.897 132.955 363.689 132.033 363.729 130.996V129.958L364.165 130.919L364.6 131.879L364.957 130.611C365.313 129.344 365.789 128.883 365.591 129.997C365.432 130.919 366.422 131.149 366.739 130.266C366.858 129.881 367.254 129.267 367.571 128.883C368.126 128.306 368.086 128.153 367.373 127.346C366.422 126.385 366.106 125.194 366.62 124.464C367.056 123.773 366.62 123.389 365.987 123.926C365.709 124.119 364.996 124.311 364.402 124.272C363.61 124.195 363.452 124.08 363.769 123.696C364.006 123.427 364.085 123.081 363.927 122.966C363.769 122.812 363.531 122.851 363.372 123.081C363.056 123.542 357.352 124.349 357.352 123.926C357.352 123.773 357.193 123.619 356.995 123.619C356.797 123.619 356.797 124.234 356.995 125.041C357.154 125.847 357.233 126.539 357.154 126.654C357.035 126.731 356.837 126.27 356.718 125.655C356.599 124.964 356.084 124.272 355.53 124.003C355.015 123.734 354.5 123.235 354.381 122.889C354.262 122.543 353.787 122.044 353.311 121.737C352.48 121.237 352.44 121.237 352.915 121.813ZM365.67 126.347C365.67 126.501 365.313 126.693 364.878 126.808C364.402 126.923 364.085 126.808 364.085 126.539C364.085 126.308 364.442 126.078 364.878 126.078C365.313 126.078 365.67 126.193 365.67 126.347Z" fill="#FF1212"/>
<path d="M389.436 121.583C389.436 121.929 393.357 123.235 394.229 123.196C394.546 123.196 393.635 122.774 392.209 122.274C389.238 121.199 389.436 121.237 389.436 121.583Z" fill="#FF1212"/>
<path d="M417.361 121.737C417.203 121.967 417.163 122.236 417.282 122.351C417.559 122.62 418.351 122.121 418.351 121.66C418.351 121.199 417.678 121.199 417.361 121.737Z" fill="#FF1212"/>
<path d="M364.917 121.967C364.878 122.198 365.076 122.543 365.313 122.697C365.828 123.004 366.739 122.198 366.304 121.813C366.145 121.66 365.868 121.775 365.709 122.044C365.432 122.467 365.313 122.467 365.155 122.044C365.036 121.698 364.917 121.66 364.917 121.967Z" fill="#FF1212"/>
<path d="M367.452 122.812C367.373 122.966 367.73 123.235 368.244 123.465C368.997 123.811 369.116 123.773 368.957 123.235C368.799 122.62 367.769 122.351 367.452 122.812Z" fill="#FF1212"/>
<path d="M432.809 133.723C432.175 133.992 431.542 134.3 431.423 134.415C431.304 134.53 430.631 134.953 429.957 135.298C428.571 135.952 428.135 136.489 429.363 135.99C430.749 135.414 434.195 133.57 434.195 133.416C434.195 133.301 434.156 133.224 434.116 133.262C434.037 133.301 433.482 133.493 432.809 133.723Z" fill="#FF1212"/>
<path d="M321.267 138.103C320.95 138.487 320.91 138.641 321.188 138.487C321.425 138.334 321.742 138.372 321.901 138.564C322.019 138.756 321.821 139.102 321.465 139.294C320.673 139.717 321.069 141.446 321.901 141.177C322.574 140.908 323.287 141.638 323.287 142.56C323.287 142.944 323.485 143.213 323.762 143.136C324.555 142.867 325.03 141.83 324.673 141.061C324.515 140.639 324.317 139.986 324.277 139.601C324.198 138.91 322.732 137.45 322.099 137.45C321.94 137.45 321.544 137.757 321.267 138.103Z" fill="#FF1212"/>
<path d="M413.915 139.025C413.083 139.448 412.41 139.87 412.41 139.947C412.41 140.062 413.123 139.794 413.994 139.371C414.866 138.948 415.579 138.487 415.579 138.41C415.579 138.142 415.579 138.142 413.915 139.025Z" fill="#FF1212"/>
<path d="M410.588 140.716C410.192 141.023 410.033 141.292 410.271 141.292C410.469 141.292 411.023 141.023 411.459 140.716C411.855 140.408 412.014 140.139 411.776 140.139C411.578 140.139 411.023 140.408 410.588 140.716Z" fill="#FF1212"/>
<path d="M426.947 141.599C425.442 142.368 424.491 143.059 424.847 143.136C425.164 143.213 425.521 143.559 425.6 143.904C425.719 144.327 425.798 144.212 425.877 143.597C425.917 142.752 425.957 142.713 426.234 143.405C426.432 143.828 426.313 144.519 426.036 145.095C425.679 145.749 425.64 146.133 425.917 146.325C426.155 146.44 426.313 146.671 426.313 146.824C426.194 147.708 426.353 148.207 426.709 148.207C427.026 148.207 427.066 147.785 426.907 146.939L426.669 145.71L427.462 146.978C428.333 148.361 428.452 148.976 427.858 148.976C427.62 148.976 426.947 149.283 426.353 149.706C425.758 150.09 424.768 150.705 424.095 151.089C422.788 151.896 423.342 152.357 424.768 151.627C425.64 151.166 425.64 151.204 424.689 152.126C424.134 152.664 422.986 153.471 422.114 153.932C421.243 154.354 420.847 154.739 421.203 154.739C421.56 154.739 421.995 154.546 422.114 154.354C422.273 154.124 422.55 154.085 422.788 154.201C423.065 154.354 423.025 154.546 422.708 154.739C422.392 154.931 422.431 155.084 422.867 155.238C423.184 155.353 423.58 155.315 423.699 155.123C424.095 154.47 424.57 154.7 424.847 155.584C425.045 156.275 425.164 156.352 425.442 155.93C425.719 155.545 425.957 155.507 426.63 155.853L427.462 156.314L426.471 157.197C425.917 157.697 425.481 158.196 425.481 158.35C425.481 158.465 426.273 158.58 427.264 158.58C428.254 158.58 429.046 158.427 429.046 158.235C429.046 157.812 431.383 156.967 431.858 157.274C432.056 157.389 432.096 157.197 431.977 156.852C431.779 156.429 431.898 156.314 432.373 156.506C432.73 156.621 433.007 156.544 433.007 156.314C433.007 156.083 433.245 155.891 433.562 155.891C433.879 155.891 434.433 155.507 434.75 155.046C435.106 154.585 435.384 154.393 435.384 154.662C435.384 154.892 435.582 155.123 435.78 155.123C435.978 155.123 436.136 154.931 436.097 154.662C435.978 154.162 437.641 153.202 438.671 153.202C439.067 153.202 439.305 153.355 439.147 153.548C439.028 153.74 439.107 154.009 439.305 154.162C439.82 154.431 441.919 153.932 441.444 153.624C441.206 153.509 440.89 153.125 440.691 152.779C440.493 152.433 438.038 149.744 435.186 146.863C432.373 143.943 430.036 141.33 430.036 141.061C430.036 140.139 429.601 140.178 426.947 141.599ZM438.354 152.049C438.671 152.549 437.76 152.549 436.968 152.049C436.493 151.742 436.532 151.665 437.245 151.665C437.721 151.665 438.236 151.819 438.354 152.049ZM425.045 154.124C425.442 154.585 425.362 154.623 424.729 154.47C424.253 154.354 423.897 154.124 423.897 153.932C423.897 153.394 424.531 153.509 425.045 154.124Z" fill="#FF1212"/>
<path d="M404.131 141.253C403.141 141.983 403.498 142.637 404.686 142.214C405.201 142.022 405.24 141.907 404.805 141.638C404.409 141.369 404.409 141.292 404.923 141.292C405.24 141.292 405.755 141.522 406.072 141.753C406.389 142.022 406.31 141.868 405.914 141.369C405.478 140.908 405.122 140.524 405.122 140.524C405.082 140.524 404.646 140.869 404.131 141.253Z" fill="#FF1212"/>
<path d="M420.609 141.522C419.975 141.868 419.54 142.214 419.658 142.291C419.777 142.406 420.451 142.137 421.164 141.714C422.708 140.792 422.273 140.639 420.609 141.522Z" fill="#FF1212"/>
<path d="M342.934 143.405C342.577 144.289 342.656 144.673 343.052 144.058C343.33 143.635 343.409 143.635 343.607 144.135C343.765 144.481 343.647 144.75 343.409 144.75C342.617 144.75 343.884 145.825 345.667 146.632C347.687 147.554 349.628 147.708 349.232 146.939C349.073 146.709 349.271 146.824 349.628 147.247C350.103 147.785 350.38 147.862 350.499 147.516C350.618 147.285 350.974 147.055 351.331 147.016C351.727 147.016 351.133 146.747 350.024 146.44C348.954 146.171 347.766 146.017 347.449 146.133C347.132 146.248 347.013 146.21 347.132 146.056C347.291 145.902 346.578 145.249 345.548 144.634C344.518 143.981 343.567 143.29 343.449 143.098C343.33 142.905 343.092 143.059 342.934 143.405Z" fill="#FF1212"/>
<path d="M437.047 144.135L434.948 145.403L437.602 148.13C439.067 149.629 440.414 150.781 440.573 150.666C440.731 150.589 441.008 150.705 441.167 150.935C441.365 151.242 441.286 151.281 440.89 151.089C440.573 150.897 440.652 151.127 441.088 151.588C441.484 152.049 442.157 152.51 442.553 152.626C443.306 152.856 452.099 148.284 451.822 147.823C451.663 147.554 439.741 142.829 439.305 142.829C439.226 142.829 438.196 143.405 437.047 144.135ZM442.315 151.281C442.078 151.665 442.672 151.857 443.504 151.665C443.741 151.627 443.702 151.819 443.425 152.088C443.028 152.472 442.83 152.433 442.315 152.049C441.642 151.511 441.523 150.897 442.157 150.897C442.355 150.897 442.434 151.05 442.315 151.281Z" fill="#FF1212"/>
<path d="M352.797 143.981C352.361 144.173 351.133 144.327 350.024 144.365C348.281 144.404 348.162 144.481 349.034 144.788C350.143 145.249 352.361 144.942 353.787 144.173C354.856 143.597 354.104 143.443 352.797 143.981Z" fill="#FF1212"/>
<path d="M410.35 145.364C408.845 146.133 408.924 146.44 410.429 145.71C411.103 145.364 411.618 145.019 411.618 144.942C411.618 144.673 411.578 144.711 410.35 145.364Z" fill="#FF1212"/>
<path d="M327.327 145.595C327.09 145.902 327.01 146.325 327.169 146.555C327.565 147.093 329.347 146.44 329.149 145.825C328.912 145.134 327.842 145.019 327.327 145.595Z" fill="#FF1212"/>
<path d="M413.44 147.093C413.519 147.247 413.36 147.477 413.123 147.554C412.846 147.669 412.806 147.785 413.044 147.785C413.242 147.823 413.757 147.593 414.153 147.324C414.786 146.863 414.786 146.824 414.034 146.824C413.598 146.824 413.321 146.94 413.44 147.093Z" fill="#FF1212"/>
<path d="M401.636 149.783C400.804 150.205 400.131 150.628 400.131 150.705C400.131 150.82 400.844 150.551 401.715 150.128C402.586 149.706 403.299 149.245 403.299 149.168C403.299 148.899 403.299 148.899 401.636 149.783Z" fill="#FF1212"/>
<path d="M404.448 150.167L403.498 150.935L404.567 150.32C405.161 149.975 405.874 149.821 406.112 149.975C406.429 150.128 406.468 150.09 406.31 149.821C405.914 149.168 405.518 149.245 404.448 150.167Z" fill="#FF1212"/>
<path d="M433.364 157.851C432.611 158.465 432.571 158.542 433.205 158.235C434.552 157.582 435.225 157.044 434.75 157.044C434.473 157.044 433.879 157.39 433.364 157.851Z" fill="#FF1212"/>
<path d="M429.838 159.656C428.769 160.156 426.273 161.731 426.273 161.923C426.273 162.038 427.105 161.654 428.175 161.078C430.551 159.733 431.581 158.888 429.838 159.656Z" fill="#FF1212"/>
<path d="M375.454 160.694C374.978 161.155 374.305 161.654 373.988 161.769C373.671 161.923 373.948 161.923 374.661 161.808C375.374 161.692 376.008 161.808 376.167 162.038C376.365 162.346 376.563 162.346 376.959 162.038C377.276 161.769 377.751 161.731 378.028 161.885C378.305 162.038 378.979 162.153 379.573 162.115C380.603 162.038 380.642 162.115 380.801 164.113C380.841 164.689 381.078 164.958 381.395 164.843C381.672 164.728 381.91 164.497 381.91 164.267C381.91 164.074 382.068 163.998 382.266 164.151C382.9 164.497 382.425 161.846 381.712 160.732C381.078 159.81 380.801 159.733 378.702 159.771C376.879 159.848 376.167 160.04 375.454 160.694Z" fill="#FF1212"/>
<path d="M387.02 160.386C386.505 160.962 386.544 160.962 387.297 160.578C387.772 160.348 388.248 160.271 388.406 160.386C388.525 160.501 388.644 160.425 388.644 160.194C388.644 159.503 387.653 159.656 387.02 160.386Z" fill="#FF1212"/>
<path d="M423.184 163.229C422.471 163.69 421.956 164.113 422.035 164.228C422.154 164.305 422.907 163.959 423.699 163.383C425.481 162.23 425.045 162.077 423.184 163.229Z" fill="#FF1212"/>
<path d="M371.017 163.575C370.621 163.998 369.987 164.343 369.591 164.343C369.195 164.343 368.403 164.535 367.848 164.804C367.096 165.112 366.858 165.534 366.858 166.456C366.858 167.532 367.096 167.801 368.957 168.685C372.918 170.606 378.583 171.489 382.385 170.759L383.851 170.452L383.296 168.954L382.742 167.455L384.049 166.649C384.802 166.226 385.633 165.573 385.911 165.227C386.426 164.651 386.386 164.651 385.475 165.112C384.92 165.381 383.574 166.303 382.465 167.11C381.355 167.916 380.286 168.569 380.128 168.569C379.929 168.569 378.583 167.455 377.117 166.072C375.652 164.689 374.265 163.575 374.028 163.575C373.79 163.575 373.552 164.305 373.552 165.189L373.473 166.841L373.235 165.304C373.037 163.959 372.879 163.767 372.007 163.882C371.255 163.959 371.136 163.921 371.611 163.613C371.928 163.421 372.087 163.152 371.968 162.999C371.849 162.883 371.413 163.152 371.017 163.575Z" fill="#FF1212"/>
<path d="M418.391 163.921C417.995 164.151 417.995 164.305 418.351 164.535C418.629 164.689 419.104 164.535 419.46 164.19C420.015 163.69 420.015 163.575 419.54 163.575C419.223 163.575 418.708 163.729 418.391 163.921Z" fill="#FF1212"/>
<path d="M418.351 165.688C417.797 165.995 417.599 166.226 417.955 166.226C418.272 166.226 418.985 165.995 419.54 165.688C420.094 165.381 420.292 165.15 419.936 165.15C419.619 165.15 418.906 165.381 418.351 165.688Z" fill="#FF1212"/>
<path d="M356.084 165.765C356.559 165.842 357.272 165.842 357.669 165.765C358.025 165.65 357.629 165.573 356.758 165.611C355.886 165.611 355.569 165.688 356.084 165.765Z" fill="#FF1212"/>
<path d="M408.092 166.879C408.053 167.455 409.201 168.377 409.518 168.032C409.637 167.916 409.558 167.801 409.281 167.801C409.003 167.801 408.924 167.609 409.083 167.34C409.241 167.11 409.201 167.033 408.924 167.186C408.726 167.302 408.409 167.186 408.33 166.956C408.172 166.648 408.092 166.61 408.092 166.879Z" fill="#FF1212"/>
<rect x="82.5979" y="279.659" width="662.553" height="7.68939" fill="#FF1212"/>
</svg>
