<?xml version="1.0" encoding="UTF-8" standalone="no"?>
<svg
   xmlns:dc="http://purl.org/dc/elements/1.1/"
   xmlns:cc="http://creativecommons.org/ns#"
   xmlns:rdf="http://www.w3.org/1999/02/22-rdf-syntax-ns#"
   xmlns:svg="http://www.w3.org/2000/svg"
   xmlns="http://www.w3.org/2000/svg"
   version="1.1"
   id="svg33090"
   viewBox="0 0 302 68.696641"
   height="68.69664"
   width="302">
  <defs
     id="defs33092" />
  <metadata
     id="metadata33095">
    <rdf:RDF>
      <cc:Work
         rdf:about="">
        <dc:format>image/svg+xml</dc:format>
        <dc:type
           rdf:resource="http://purl.org/dc/dcmitype/StillImage" />
        <dc:title></dc:title>
      </cc:Work>
    </rdf:RDF>
  </metadata>
  <g
     transform="translate(-464.68955,-703.72725)"
     id="layer1">
    <g
       transform="matrix(2.1868688,0,0,-2.1868688,561.19064,771.42281)"
       id="g32816">
      <path
         id="path32818"
         style="fill:#0aa547;fill-opacity:1;fill-rule:nonzero;stroke:none"
         d="m 0,0 -11.785,0 6.172,19.406 11.787,0 L 0,0 Z" />
    </g>
    <g
       transform="matrix(2.1868688,0,0,-2.1868688,578.54038,716.86218)"
       id="g32820">
      <path
         id="path32822"
         style="fill:#0aa547;fill-opacity:1;fill-rule:nonzero;stroke:none"
         d="m 0,0 c -0.48,-1.518 -2.123,-2.768 -3.652,-2.768 l -6.237,0 c -1.523,0 -2.377,1.25 -1.89,2.768 l 0.881,2.774 c 0.486,1.525 2.128,2.775 3.656,2.775 l 6.238,0 c 1.527,0 2.377,-1.25 1.889,-2.775 L 0,0 Z" />
    </g>
    <g
       transform="matrix(2.1868688,0,0,-2.1868688,620.3045,704.72768)"
       id="g32824">
      <path
         id="path32826"
         style="fill:#0aa547;fill-opacity:1;fill-rule:nonzero;stroke:none"
         d="m 0,0 -3.949,-12.41 c 0.23,0.726 -0.172,1.318 -0.901,1.318 l -10.461,0 c -1.529,0 -3.171,-1.247 -3.658,-2.771 l -4.41,-13.866 c -0.486,-1.523 0.365,-2.769 1.891,-2.769 l 23.57,0 L 11.781,0 0,0 Z m -8.844,-27.792 c -0.23,-0.727 -1.013,-1.319 -1.744,-1.319 l -0.129,0 c -0.722,0 -1.131,0.592 -0.9,1.319 l 4.453,13.995 c 0.232,0.726 1.014,1.321 1.744,1.321 l 0.129,0 c 0.723,0 1.129,-0.595 0.898,-1.321 l -4.451,-13.995 z" />
    </g>
    <g
       transform="matrix(2.1868688,0,0,-2.1868688,694.7819,751.71758)"
       id="g32828">
      <path
         id="path32830"
         style="fill:#0aa547;fill-opacity:1;fill-rule:nonzero;stroke:none"
         d="m 0,0 2.426,7.624 c 0.488,1.524 -0.363,2.772 -1.889,2.772 l -20.797,0 c -1.523,0 -3.168,-1.248 -3.652,-2.772 L -28.32,-6.241 c -0.489,-1.524 0.359,-2.77 1.884,-2.77 l 23.571,0 0.441,1.387 -11.783,0 c -1.525,0 -2.375,1.246 -1.893,2.77 L -14.555,0 0,0 Z m -12.109,7.69 c 0.23,0.726 1.015,1.322 1.742,1.322 l 0.131,0 c 0.728,0 1.129,-0.596 0.9,-1.322 l -2.006,-6.303 -2.771,0 2.004,6.303 z" />
    </g>
    <g
       transform="matrix(2.1868688,0,0,-2.1868688,738.9507,732.01651)"
       id="g32832">
      <path
         id="path32834"
         style="fill:#0aa547;fill-opacity:1;fill-rule:nonzero;stroke:none"
         d="m 0,0 11.785,0 0.442,1.387 -23.569,0 c -1.527,0 -3.172,-1.248 -3.658,-2.772 l -4.408,-13.86 c -0.488,-1.528 0.367,-2.775 1.89,-2.775 l 23.563,0 0.443,1.387 -11.783,0 c -1.525,0 -2.375,1.246 -1.889,2.773 l 3.532,11.09 C -3.172,-1.245 -1.523,0 0,0" />
    </g>
    <g
       transform="matrix(2.1868688,0,0,-2.1868688,547.53968,704.72768)"
       id="g32836">
      <path
         id="path32838"
         style="fill:#0aa547;fill-opacity:1;fill-rule:nonzero;stroke:none"
         d="M 0,0 -6.172,-19.408 -18.018,0 l -9.707,0 -9.703,-30.498 1.389,0 6.172,19.406 11.849,-19.406 9.702,0 L 1.389,0 0,0 Z" />
    </g>
  </g>
</svg>
